<svg xmlns="http://www.w3.org/2000/svg" xmlns:xlink="http://www.w3.org/1999/xlink" width="1024" zoomAndPan="magnify" viewBox="0 0 768 767.999994" height="1024" preserveAspectRatio="xMidYMid meet" version="1"><defs><g/></defs><g fill="#ffffff" fill-opacity="1"><g transform="translate(164.2,400.5)"><g><path d="M 70.5 -64 C 70.5 -56.4 67.9 -50.2 62.7 -45.2 C 57.6 -40.3 49.7 -37.8 39.2 -37.8 L 21.8 -37.8 L 21.8 0 L 10 0 L 10 -90.5 L 39.2 -90.5 C 49.4 -90.5 57.2 -88 62.5 -83 C 67.8 -78.1 70.5 -71.8 70.5 -64 Z M 39.2 -47.5 C 45.8 -47.5 50.6 -48.9 53.7 -51.8 C 56.8 -54.6 58.4 -58.7 58.4 -64 C 58.4 -75.1 52 -80.7 39.2 -80.7 L 21.8 -80.7 L 21.8 -47.5 Z M 39.2 -47.5"/></g></g></g><g fill="#ffffff" fill-opacity="1"><g transform="translate(245,400.5)"><g><path d="M 63.5 -20.1 L 24 -20.1 L 16.7 0 L 4.3 0 L 37 -89.9 L 50.6 -89.9 L 83.2 0 L 70.7 0 Z M 60.1 -29.7 L 43.7 -75.4 L 27.4 -29.7 Z M 60.1 -29.7"/></g></g></g><g fill="#ffffff" fill-opacity="1"><g transform="translate(338.2,400.5)"><g><path d="M 57.6 0 L 36.1 -37 L 21.8 -37 L 21.8 0 L 10 0 L 10 -90.5 L 39.2 -90.5 C 46 -90.5 51.8 -89.3 56.5 -86.9 C 61.2 -84.6 64.7 -81.4 67.1 -77.5 C 69.4 -73.5 70.6 -68.9 70.6 -63.8 C 70.6 -57.6 68.8 -52.1 65.2 -47.4 C 61.6 -42.6 56.2 -39.5 49 -37.9 L 71.8 0 Z M 21.8 -46.5 L 39.2 -46.5 C 45.6 -46.5 50.4 -48 53.6 -51.2 C 56.8 -54.3 58.4 -58.6 58.4 -63.8 C 58.4 -69.2 56.8 -73.4 53.7 -76.3 C 50.5 -79.2 45.7 -80.7 39.2 -80.7 L 21.8 -80.7 Z M 21.8 -46.5"/></g></g></g><g fill="#ffffff" fill-opacity="1"><g transform="translate(422.8,400.5)"><g><path d="M 65.7 -90.5 L 65.7 -80.8 L 41 -80.8 L 41 0 L 29.2 0 L 29.2 -80.8 L 4.4 -80.8 L 4.4 -90.5 Z M 65.7 -90.5"/></g></g></g><g fill="#ffffff" fill-opacity="1"><g transform="translate(498.7,400.5)"><g><path d="M 79.7 -90.5 L 79.7 0 L 67.9 0 L 67.9 -41 L 21.8 -41 L 21.8 0 L 10 0 L 10 -90.5 L 21.8 -90.5 L 21.8 -50.7 L 67.9 -50.7 L 67.9 -90.5 Z M 79.7 -90.5"/></g></g></g><g fill="#ffffff" fill-opacity="1"><g transform="translate(128.1,530.3)"><g/></g></g><g fill="#ffffff" fill-opacity="1"><g transform="translate(168.4,530.3)"><g><path d="M 101.7 -89.8 L 101.7 0 L 89.9 0 L 89.9 -67 L 60.1 0 L 51.8 0 L 21.8 -67.1 L 21.8 0 L 10 0 L 10 -89.8 L 22.7 -89.8 L 55.9 -15.6 L 89.2 -89.8 Z M 101.7 -89.8"/></g></g></g><g fill="#ffffff" fill-opacity="1"><g transform="translate(285.9,530.3)"><g><path d="M 21.8 -90.5 L 21.8 0 L 10 0 L 10 -90.5 Z M 21.8 -90.5"/></g></g></g><g fill="#ffffff" fill-opacity="1"><g transform="translate(323.5,530.3)"><g><path d="M 65.7 -90.5 L 65.7 -80.8 L 41 -80.8 L 41 0 L 29.2 0 L 29.2 -80.8 L 4.4 -80.8 L 4.4 -90.5 Z M 65.7 -90.5"/></g></g></g><g fill="#ffffff" fill-opacity="1"><g transform="translate(399.4,530.3)"><g><path d="M 65.7 -90.5 L 65.7 -80.8 L 41 -80.8 L 41 0 L 29.2 0 L 29.2 -80.8 L 4.4 -80.8 L 4.4 -90.5 Z M 65.7 -90.5"/></g></g></g><g fill="#ffffff" fill-opacity="1"><g transform="translate(475.3,530.3)"><g><path d="M 63.5 -20.1 L 24 -20.1 L 16.7 0 L 4.3 0 L 37 -89.9 L 50.6 -89.9 L 83.2 0 L 70.7 0 Z M 60.1 -29.7 L 43.7 -75.4 L 27.4 -29.7 Z M 60.1 -29.7"/></g></g></g><g fill="#ffffff" fill-opacity="1"><g transform="translate(568.5,530.3)"><g><path d="M 21.8 -9.6 L 53.5 -9.6 L 53.5 0 L 10 0 L 10 -90.5 L 21.8 -90.5 Z M 21.8 -9.6"/></g></g></g><g fill="#1aede6" fill-opacity="1"><g transform="translate(26.2,532.4)"><g><path d="M 31.2 -121.7 C 51.5 -125.4 61.6 -135.8 61.6 -152.9 C 61.6 -160.4 60.6 -173.3 58.6 -191.6 C 56.6 -211 55.6 -225.1 55.6 -233.8 C 55.6 -248.1 59.6 -259 67.7 -266.5 C 75.7 -274.1 86.5 -277.8 99.9 -277.8 L 117.2 -277.8 L 117.2 -254.3 L 105 -254.3 C 97.3 -254.3 91.5 -252.6 87.8 -249.1 C 84 -245.6 82.1 -239.9 82.1 -232 C 82.1 -226.3 82.5 -219.2 83.3 -210.8 C 84.1 -202.3 84.6 -196.6 84.8 -193.6 C 86.8 -174.6 87.8 -160.7 87.8 -152 C 87.8 -141.5 85.1 -132.7 79.9 -125.7 C 74.6 -118.6 66.5 -113.9 55.6 -111.5 L 55.6 -111 C 66.5 -108.6 74.6 -103.8 79.9 -96.7 C 85.1 -89.5 87.8 -80.7 87.8 -70.2 C 87.8 -61.5 86.8 -47.6 84.8 -28.6 C 84.6 -25.6 84.1 -19.9 83.3 -11.5 C 82.5 -3 82.1 4.1 82.1 9.8 C 82.1 17.8 84 23.5 87.8 26.9 C 91.5 30.4 97.3 32.1 105 32.1 L 117.2 32.1 L 117.2 55.6 L 99.9 55.6 C 86.5 55.6 75.7 51.9 67.7 44.3 C 59.6 36.8 55.6 25.9 55.6 11.6 C 55.6 2.9 56.6 -11.2 58.6 -30.6 C 60.6 -48.9 61.6 -61.8 61.6 -69.3 C 61.6 -86.4 51.5 -96.8 31.2 -100.5 Z M 31.2 -121.7"/></g></g></g><g fill="#1aede6" fill-opacity="1"><g transform="translate(612.3,536)"><g><path d="M 106.9 -101.2 C 86.6 -97.4 76.4 -87 76.4 -69.8 C 76.4 -62.2 77.4 -49.2 79.4 -30.8 C 81.4 -11.3 82.4 2.9 82.4 11.7 C 82.4 26.1 78.3 37 70.2 44.6 C 62.1 52.2 51.3 56 37.7 56 L 20.4 56 L 20.4 32.3 L 32.6 32.3 C 40.4 32.3 46.2 30.6 50 27.1 C 53.8 23.6 55.7 17.9 55.7 9.9 C 55.7 4.1 55.3 -3 54.5 -11.5 C 53.7 -20 53.2 -25.8 53 -28.8 C 51 -47.9 50 -61.9 50 -70.7 C 50 -81.3 52.7 -90.2 58 -97.3 C 63.2 -104.5 71.4 -109.3 82.4 -111.7 L 82.4 -112.3 C 71.4 -114.7 63.2 -119.4 58 -126.5 C 52.7 -133.6 50 -142.5 50 -153 C 50 -161.8 51 -175.8 53 -195 C 53.2 -198 53.7 -203.7 54.5 -212.2 C 55.3 -220.7 55.7 -227.8 55.7 -233.6 C 55.7 -241.6 53.8 -247.3 50 -250.8 C 46.2 -254.3 40.4 -256.1 32.6 -256.1 L 20.4 -256.1 L 20.4 -279.7 L 37.7 -279.7 C 51.3 -279.7 62.1 -275.9 70.2 -268.3 C 78.3 -260.8 82.4 -249.8 82.4 -235.4 C 82.4 -226.6 81.4 -212.4 79.4 -192.9 C 77.4 -174.5 76.4 -161.5 76.4 -153.9 C 76.4 -136.8 86.6 -126.3 106.9 -122.5 Z M 106.9 -101.2"/></g></g></g></svg>