<svg xmlns="http://www.w3.org/2000/svg" xmlns:xlink="http://www.w3.org/1999/xlink" width="500" zoomAndPan="magnify" viewBox="0 0 375 374.999991" height="500" preserveAspectRatio="xMidYMid meet" version="1.0"><defs><g/><clipPath id="6ec9a45dce"><path d="M 278.203125 83.675781 L 361.453125 83.675781 L 361.453125 253.925781 L 278.203125 253.925781 Z M 278.203125 83.675781 " clip-rule="nonzero"/></clipPath><clipPath id="89079932d9"><path d="M 14.238281 83.675781 L 97.453125 83.675781 L 97.453125 253.925781 L 14.238281 253.925781 Z M 14.238281 83.675781 " clip-rule="nonzero"/></clipPath></defs><g clip-path="url(#6ec9a45dce)"><path fill="#000000" d="M 361.546875 150.738281 C 361.363281 150.277344 361.515625 149.789062 361.40625 149.316406 C 361.390625 150.164062 361.246094 151.007812 361.238281 151.847656 C 361.214844 154.886719 360.992188 157.910156 360.734375 160.933594 C 360.449219 164.265625 360.085938 167.597656 359.699219 170.917969 C 359.390625 173.601562 359.136719 176.292969 358.851562 178.980469 C 358.769531 179.742188 358.664062 180.5 358.683594 181.269531 C 358.6875 181.382812 358.726562 181.542969 358.566406 181.566406 C 358.449219 181.585938 358.40625 181.449219 358.359375 181.355469 C 357.894531 180.496094 357.4375 179.632812 356.972656 178.777344 C 356.90625 178.648438 356.871094 178.488281 356.644531 178.410156 C 356.574219 179.148438 356.488281 179.867188 356.429688 180.59375 C 356.21875 183.242188 356.019531 185.890625 355.816406 188.539062 C 355.8125 188.585938 355.808594 188.628906 355.808594 188.675781 C 355.765625 189.554688 355.765625 189.542969 354.859375 189.558594 C 352.996094 189.585938 351.128906 189.550781 349.28125 189.824219 C 347.136719 190.144531 345.246094 191.085938 343.542969 192.394531 C 342.550781 193.160156 342.039062 194.289062 341.554688 195.414062 C 341.351562 195.886719 341.347656 195.894531 340.972656 195.515625 C 340.617188 195.152344 340.246094 194.796875 339.90625 194.417969 C 339.691406 194.171875 339.59375 194.160156 339.46875 194.492188 C 338.796875 196.25 338.285156 198.050781 337.9375 199.902344 C 337.371094 202.953125 337.203125 206.039062 337.082031 209.132812 C 337.007812 211.0625 337.238281 212.972656 337.214844 214.894531 C 337.210938 215.242188 337.382812 215.359375 337.695312 215.292969 C 338.179688 215.1875 338.664062 215.078125 339.144531 214.949219 C 339.46875 214.863281 339.585938 214.964844 339.570312 215.296875 C 339.539062 215.96875 339.617188 216.648438 339.511719 217.320312 C 339.472656 217.574219 339.601562 217.789062 339.710938 218 C 340.183594 218.921875 340.636719 219.859375 341.152344 220.757812 C 341.523438 221.402344 341.433594 222.058594 341.359375 222.726562 C 340.585938 229.902344 338.890625 236.832031 335.8125 243.390625 C 334.753906 245.644531 333.535156 247.800781 331.882812 249.679688 C 330.566406 251.179688 329.0625 252.460938 327.28125 253.398438 C 326.898438 253.601562 326.71875 253.507812 326.546875 253.160156 C 326.359375 252.769531 326.132812 252.394531 325.9375 252.003906 C 325.820312 251.777344 325.683594 251.691406 325.433594 251.800781 C 322.273438 253.210938 319.007812 253.105469 315.710938 252.453125 C 311.78125 251.675781 308.144531 250.105469 304.589844 248.320312 C 300.3125 246.171875 296.25 243.65625 292.289062 240.976562 C 291.980469 240.765625 291.820312 240.527344 291.773438 240.140625 C 291.332031 236.703125 290.9375 233.257812 290.609375 229.804688 C 290.3125 226.683594 290.027344 223.558594 289.707031 220.4375 C 289.34375 216.945312 288.949219 213.457031 288.5625 209.964844 C 288.480469 209.203125 288.390625 208.445312 288.296875 207.683594 C 288.242188 207.253906 288.46875 207.378906 288.699219 207.46875 C 291.789062 208.679688 294.878906 209.894531 297.976562 211.089844 C 299.015625 211.488281 300.042969 211.914062 301.152344 212.097656 C 301.335938 212.125 301.488281 212.214844 301.621094 212.347656 C 302.570312 213.332031 303.519531 214.316406 304.472656 215.296875 C 304.640625 215.46875 304.644531 215.636719 304.523438 215.820312 C 304.304688 216.144531 304.082031 216.46875 303.867188 216.792969 C 303.714844 217.027344 303.488281 217.058594 303.238281 217.058594 C 301.886719 217.066406 300.585938 216.773438 299.304688 216.367188 C 297.558594 215.8125 295.84375 215.160156 294.136719 214.492188 C 294.003906 214.4375 293.859375 214.300781 293.71875 214.414062 C 293.582031 214.527344 293.675781 214.695312 293.691406 214.839844 C 293.859375 216.4375 294.027344 218.035156 294.1875 219.632812 C 294.390625 221.675781 294.589844 223.722656 294.789062 225.769531 C 294.980469 227.757812 295.15625 229.746094 295.367188 231.730469 C 295.582031 233.730469 295.835938 235.726562 296.066406 237.722656 C 296.09375 237.976562 296.207031 238.128906 296.410156 238.261719 C 300.4375 240.902344 304.570312 243.355469 308.945312 245.382812 C 309.15625 245.484375 309.355469 245.550781 309.464844 245.277344 C 309.617188 244.90625 309.839844 244.941406 310.148438 245.078125 C 312.40625 246.085938 314.734375 246.882812 317.164062 247.347656 C 318.707031 247.644531 320.265625 247.703125 321.820312 247.429688 C 323.804688 247.085938 325.25 245.894531 326.476562 244.394531 C 327.980469 242.558594 328.914062 240.402344 329.839844 238.246094 C 331.761719 233.769531 332.90625 229.085938 333.566406 224.269531 C 333.886719 221.933594 334.085938 219.585938 334.21875 217.234375 C 334.328125 215.273438 334.113281 213.332031 334.039062 211.386719 C 333.980469 209.941406 334.101562 208.5 334.136719 207.0625 C 334.164062 205.890625 334.25 204.722656 334.371094 203.558594 C 334.773438 199.75 335.460938 196.003906 337.054688 192.484375 C 338.3125 189.710938 340.417969 187.785156 343.097656 186.40625 C 345.382812 185.234375 347.78125 184.546875 350.332031 184.371094 C 350.738281 184.34375 350.855469 184.175781 350.878906 183.785156 C 351.003906 181.503906 351.230469 179.234375 351.476562 176.964844 C 351.671875 175.175781 351.851562 173.382812 352.046875 171.59375 C 352.304688 169.234375 352.582031 166.878906 352.824219 164.523438 C 353.007812 162.789062 353.164062 161.054688 353.300781 159.320312 C 353.414062 157.914062 353.496094 156.503906 353.566406 155.09375 C 353.597656 154.46875 353.570312 154.484375 352.960938 154.449219 C 350.9375 154.324219 348.90625 154.378906 346.886719 154.199219 C 346.542969 154.167969 346.421875 154.027344 346.496094 153.710938 C 346.550781 153.476562 346.464844 153.375 346.238281 153.34375 C 342.285156 152.800781 340.238281 150.050781 338.691406 146.761719 C 337.921875 145.125 337.65625 143.351562 337.433594 141.570312 C 337.058594 138.519531 337.0625 135.457031 337.0625 132.390625 C 337.0625 131.71875 337.164062 131.074219 337.433594 130.460938 C 337.914062 129.382812 337.925781 128.25 337.839844 127.101562 C 337.757812 125.976562 337.667969 124.851562 337.695312 123.722656 C 337.761719 120.972656 337.628906 118.226562 337.417969 115.484375 C 337.132812 111.828125 336.710938 108.191406 335.726562 104.644531 C 335.648438 104.363281 335.640625 103.996094 335.164062 104.21875 C 335.019531 104.285156 334.972656 104.121094 334.9375 104.003906 C 334 100.808594 332.402344 97.992188 329.933594 95.742188 C 327.371094 93.40625 324.332031 91.972656 320.890625 91.5 C 318.816406 91.214844 316.753906 91.367188 314.742188 92.003906 C 314.324219 92.136719 314.265625 92.074219 314.351562 91.648438 C 314.445312 91.148438 314.097656 91.382812 313.941406 91.425781 C 312.496094 91.847656 311.085938 92.359375 309.707031 92.964844 C 306.179688 94.507812 302.792969 96.332031 299.410156 98.167969 C 297.242188 99.34375 294.996094 100.359375 292.769531 101.410156 C 290.496094 102.480469 288.253906 103.601562 286.132812 104.960938 C 285.65625 105.265625 285.484375 105.609375 285.515625 106.179688 C 285.710938 109.671875 285.964844 113.160156 286.3125 116.636719 C 286.605469 119.550781 286.925781 122.460938 287.070312 125.386719 C 287.121094 126.417969 287.199219 127.453125 287.238281 128.488281 C 287.25 128.824219 287.332031 128.914062 287.664062 128.777344 C 288.527344 128.414062 289.308594 127.910156 290.097656 127.410156 C 292.769531 125.714844 295.667969 125 298.824219 125.53125 C 299.269531 125.605469 299.6875 125.785156 300.097656 125.972656 C 300.285156 126.058594 300.476562 126.167969 300.53125 125.839844 C 300.601562 125.425781 300.808594 125.574219 300.992188 125.734375 C 301.597656 126.253906 302.011719 126.914062 302.347656 127.628906 C 303.195312 129.429688 303.621094 131.339844 303.839844 133.308594 C 304.132812 135.9375 304.292969 138.574219 304.394531 141.214844 C 304.488281 143.597656 304.570312 145.984375 304.832031 148.359375 C 305.230469 151.953125 305.796875 155.507812 307.203125 158.867188 C 307.984375 160.734375 309.214844 162.277344 310.660156 163.660156 C 310.949219 163.9375 311.144531 164.183594 310.925781 164.589844 C 310.785156 164.855469 311.015625 165.007812 311.171875 165.15625 C 312.527344 166.445312 314.019531 167.5625 315.617188 168.53125 C 316.289062 168.933594 316.941406 169.359375 317.605469 169.773438 C 317.863281 169.9375 317.914062 170.074219 317.605469 170.253906 C 317.273438 170.449219 316.972656 170.738281 316.59375 170.320312 C 316.488281 170.203125 316.308594 170.269531 316.160156 170.304688 C 313.640625 170.9375 311.117188 171.566406 308.597656 172.1875 C 308.253906 172.269531 308.011719 172.464844 307.800781 172.738281 C 306.527344 174.386719 305.6875 176.261719 304.976562 178.203125 C 304.050781 180.714844 303.21875 183.253906 302.722656 185.890625 C 302.320312 188.003906 302.054688 190.132812 301.929688 192.277344 C 301.824219 194.078125 301.707031 195.875 301.75 197.679688 C 301.800781 199.707031 301.878906 201.734375 301.953125 203.761719 C 301.964844 204.109375 302.109375 204.460938 301.988281 204.8125 C 301.832031 204.8125 301.800781 204.695312 301.757812 204.609375 C 300.917969 202.792969 299.980469 201.027344 299.054688 199.257812 C 298.824219 198.820312 298.722656 198.371094 298.722656 197.875 C 298.726562 193.558594 298.933594 189.25 299.832031 185.015625 C 300.703125 180.902344 301.964844 176.910156 303.9375 173.171875 C 304.492188 172.121094 305.164062 171.136719 305.960938 170.253906 C 306.207031 169.984375 306.1875 169.828125 305.941406 169.59375 C 304.742188 168.453125 303.625 167.242188 302.628906 165.914062 C 300.601562 163.214844 299.476562 160.125 298.65625 156.898438 C 297.945312 154.082031 297.550781 151.214844 297.28125 148.324219 C 297.082031 146.199219 297 144.070312 296.914062 141.941406 C 296.796875 138.984375 296.652344 136.03125 296.210938 133.101562 C 296.066406 132.148438 296.066406 132.160156 295.148438 132.449219 C 294.464844 132.664062 293.867188 133.027344 293.285156 133.433594 C 291.683594 134.558594 289.847656 135.214844 288.09375 136.03125 C 285.84375 137.078125 283.578125 138.085938 281.328125 139.125 C 280.980469 139.285156 280.886719 139.226562 280.875 138.855469 C 280.789062 136.527344 280.699219 134.203125 280.597656 131.878906 C 280.46875 128.785156 280.25 125.707031 279.917969 122.628906 C 279.542969 119.152344 279.089844 115.683594 278.777344 112.199219 C 278.625 110.460938 278.496094 108.726562 278.523438 106.980469 C 278.53125 106.296875 278.402344 105.613281 278.394531 104.921875 C 278.316406 105.882812 278.472656 106.855469 278.195312 107.796875 L 278.195312 102.65625 C 278.492188 102.796875 278.667969 102.683594 278.710938 102.285156 C 278.738281 102.0625 278.714844 101.820312 278.914062 101.664062 C 279.210938 101.4375 279.523438 101.226562 279.832031 101.015625 C 279.972656 100.917969 280.101562 100.957031 280.175781 101.097656 C 280.363281 101.453125 280.570312 101.296875 280.792969 101.140625 C 281.671875 100.511719 282.574219 99.914062 283.503906 99.359375 C 286.441406 97.617188 289.519531 96.148438 292.578125 94.644531 C 294.847656 93.527344 297.007812 92.21875 299.226562 91.015625 C 302.4375 89.273438 305.664062 87.570312 309.109375 86.320312 C 309.375 86.226562 309.652344 86.160156 309.695312 85.789062 C 309.714844 85.605469 309.929688 85.582031 310.085938 85.523438 C 311 85.183594 311.945312 84.929688 312.886719 84.679688 C 314.179688 84.34375 315.484375 84.070312 316.941406 83.992188 C 316.550781 83.867188 316.25 83.953125 315.988281 83.804688 L 322.304688 83.804688 C 322.105469 83.953125 321.847656 83.871094 321.542969 83.988281 C 322.695312 84.128906 323.742188 84.300781 324.769531 84.601562 C 328.355469 85.65625 331.664062 87.257812 334.511719 89.710938 C 338.027344 92.746094 340.34375 96.585938 341.894531 100.917969 C 342.976562 103.945312 343.53125 107.089844 343.90625 110.273438 C 344.292969 113.574219 344.484375 116.886719 344.515625 120.203125 C 344.539062 122.519531 344.449219 124.835938 344.625 127.144531 C 344.757812 128.9375 344.570312 130.679688 343.984375 132.378906 C 343.9375 132.519531 343.902344 132.671875 343.902344 132.820312 C 343.871094 135.867188 343.863281 138.917969 344.34375 141.941406 C 344.59375 143.539062 345.148438 144.984375 346.296875 146.164062 C 346.582031 146.457031 346.910156 146.613281 347.320312 146.664062 C 349.203125 146.886719 351.101562 146.839844 352.988281 146.902344 C 355.554688 146.988281 358.125 146.820312 360.695312 147.007812 C 360.976562 147.027344 361.265625 147.050781 361.542969 146.945312 L 361.542969 150.734375 Z M 356.058594 162.53125 C 356.058594 162.785156 355.988281 163.050781 356.195312 163.261719 C 356.496094 163.574219 356.808594 163.878906 357.117188 164.1875 C 357.257812 164.324219 357.351562 164.300781 357.382812 164.101562 C 357.414062 163.90625 357.445312 163.714844 357.464844 163.523438 C 357.539062 162.71875 357.585938 161.90625 357.6875 161.105469 C 357.832031 159.976562 357.777344 159.917969 356.679688 160.191406 C 356.394531 160.261719 356.242188 160.382812 356.222656 160.699219 C 356.183594 161.3125 356.113281 161.921875 356.054688 162.535156 Z M 356.058594 162.53125 " fill-opacity="1" fill-rule="nonzero"/></g><path fill="#1aede6" d="M 316.320312 247.511719 C 316.175781 247.511719 316.046875 247.480469 315.898438 247.441406 C 315.503906 247.34375 315.152344 247.082031 314.949219 246.726562 C 314.300781 245.601562 314.207031 245.445312 319.664062 240.5 C 311.339844 245.621094 311.109375 245.566406 310.273438 245.351562 C 309.878906 245.253906 309.507812 244.980469 309.304688 244.628906 C 308.621094 243.445312 308.507812 243.246094 315.386719 237.851562 C 306.585938 243.25 306.40625 243.203125 305.570312 242.992188 C 305.175781 242.894531 304.816406 242.625 304.613281 242.273438 C 303.890625 241.015625 303.769531 240.804688 311.933594 234.753906 C 302.191406 240.664062 301.894531 240.585938 301.054688 240.371094 C 300.660156 240.269531 300.292969 239.992188 300.089844 239.640625 C 299.464844 238.558594 299.246094 238.183594 304.636719 234.257812 C 298.597656 237.824219 298.300781 237.757812 297.613281 237.578125 C 297.222656 237.476562 296.863281 237.203125 296.660156 236.855469 C 296.070312 235.839844 295.839844 235.433594 300.1875 232.261719 C 298.160156 233.308594 297.648438 233.316406 297.140625 233.191406 C 296.746094 233.089844 296.359375 232.796875 296.15625 232.449219 C 295.390625 231.121094 295.214844 230.820312 305.519531 223.515625 C 298.207031 227.917969 297.433594 228.0625 296.597656 227.851562 C 296.203125 227.75 295.816406 227.460938 295.609375 227.109375 C 295.164062 226.328125 295.136719 226.289062 297.238281 222.371094 C 296.699219 222.632812 296.445312 222.632812 296.046875 222.535156 C 295.648438 222.4375 295.304688 222.175781 295.101562 221.820312 C 294.6875 221.097656 294.941406 220.179688 295.660156 219.769531 C 295.769531 219.703125 295.886719 219.65625 296.007812 219.621094 C 296.351562 219.4375 297.210938 218.898438 297.800781 218.527344 C 300.242188 217 300.554688 216.8125 301.292969 216.992188 C 301.6875 217.089844 302.035156 217.351562 302.238281 217.703125 C 302.554688 218.246094 301.902344 220.03125 300.28125 223.050781 C 300.261719 223.085938 300.246094 223.121094 300.226562 223.15625 C 303.925781 221.027344 309.792969 217.398438 314.476562 214.496094 C 331.148438 204.175781 332.046875 203.851562 333.144531 204.132812 C 333.542969 204.230469 333.925781 204.515625 334.128906 204.867188 C 334.972656 206.335938 335.054688 206.476562 321.589844 215.914062 C 331.84375 209.644531 332.085938 209.703125 332.953125 209.921875 C 333.347656 210.023438 333.710938 210.296875 333.914062 210.648438 C 334.550781 211.75 334.757812 212.105469 329.160156 216.050781 C 332.300781 214.289062 332.609375 214.371094 333.148438 214.511719 C 333.542969 214.609375 333.90625 214.882812 334.105469 215.230469 C 334.757812 216.359375 334.925781 216.648438 328.566406 221.167969 C 332.03125 219.179688 332.339844 219.257812 332.925781 219.402344 C 333.320312 219.5 333.6875 219.777344 333.886719 220.128906 C 334.585938 221.332031 334.742188 221.601562 327.726562 226.84375 C 331.097656 224.90625 331.601562 224.875 332.226562 225.035156 C 332.621094 225.132812 332.996094 225.414062 333.199219 225.765625 C 333.859375 226.910156 333.984375 227.125 327.722656 232.046875 C 330.207031 230.605469 330.457031 230.671875 331.011719 230.816406 C 331.40625 230.917969 331.769531 231.1875 331.972656 231.539062 C 332.625 232.660156 332.691406 232.78125 327.09375 237.84375 C 328.085938 237.339844 328.3125 237.402344 328.722656 237.5 C 329.117188 237.601562 329.472656 237.867188 329.675781 238.222656 C 330.089844 238.941406 329.84375 239.863281 329.125 240.273438 C 328.949219 240.378906 328.757812 240.4375 328.566406 240.464844 C 327.707031 240.867188 324.699219 242.730469 322.667969 243.988281 C 317.875 246.953125 316.921875 247.511719 316.3125 247.511719 Z M 327.101562 239.765625 Z M 327.101562 239.761719 Z M 327.101562 239.757812 Z M 327.09375 239.75 C 327.09375 239.75 327.09375 239.75 327.09375 239.753906 C 327.09375 239.753906 327.09375 239.753906 327.09375 239.75 Z M 327.09375 239.746094 C 327.09375 239.746094 327.09375 239.746094 327.09375 239.75 C 327.09375 239.75 327.09375 239.75 327.09375 239.746094 Z M 327.09375 239.746094 Z M 327.09375 239.742188 C 327.09375 239.742188 327.09375 239.742188 327.09375 239.746094 C 327.09375 239.746094 327.09375 239.742188 327.09375 239.742188 Z M 327.09375 239.742188 Z M 327.09375 239.738281 Z M 327.09375 239.734375 Z M 327.09375 239.730469 Z M 327.09375 239.730469 Z M 327.09375 239.730469 " fill-opacity="1" fill-rule="nonzero"/><path fill="#1aede6" d="M 348.582031 185.441406 C 348.476562 185.441406 348.359375 185.429688 348.242188 185.40625 C 347.832031 185.3125 347.464844 185.046875 347.253906 184.683594 C 346.835938 183.964844 347.082031 183.046875 347.800781 182.628906 C 347.882812 182.582031 347.964844 182.542969 348.050781 182.511719 C 348.101562 182.480469 348.15625 182.4375 348.210938 182.402344 C 348.679688 182.070312 349.175781 181.730469 349.867188 181.886719 C 350.28125 181.980469 350.644531 182.25 350.851562 182.621094 C 351.257812 183.34375 351.003906 184.261719 350.28125 184.667969 C 350.214844 184.703125 350.144531 184.738281 350.078125 184.761719 C 350.03125 184.792969 349.984375 184.828125 349.933594 184.863281 C 349.511719 185.15625 349.105469 185.441406 348.582031 185.441406 Z M 348.582031 185.441406 " fill-opacity="1" fill-rule="nonzero"/><path fill="#1aede6" d="M 307.820312 212.730469 C 307.667969 212.730469 307.539062 212.703125 307.410156 212.667969 C 307.011719 212.570312 306.640625 212.292969 306.4375 211.941406 C 305.613281 210.511719 305.433594 210.203125 318.277344 201.457031 C 309.246094 206.886719 308.386719 207.082031 307.507812 206.855469 C 307.117188 206.757812 306.730469 206.46875 306.527344 206.117188 C 305.757812 204.789062 305.515625 204.363281 316.460938 196.835938 C 308.410156 201.621094 308.054688 201.527344 307.292969 201.332031 C 306.902344 201.234375 306.53125 200.953125 306.328125 200.605469 C 305.570312 199.289062 305.355469 198.921875 315.808594 191.824219 C 308.742188 196 308.003906 196.128906 307.234375 195.933594 C 306.84375 195.835938 306.46875 195.554688 306.265625 195.207031 C 305.390625 193.691406 305.300781 193.539062 322.214844 182.019531 C 309.402344 189.859375 308.664062 190.078125 307.6875 189.832031 C 307.292969 189.730469 306.921875 189.453125 306.71875 189.101562 C 306.011719 187.878906 305.792969 187.5 313.609375 182.1875 C 310.445312 183.929688 309.589844 184.125 308.957031 183.960938 C 308.566406 183.863281 308.175781 183.570312 307.972656 183.222656 C 307.289062 182.035156 307.101562 181.714844 315.019531 176.238281 C 312.523438 177.605469 312.019531 177.609375 311.460938 177.472656 C 311.066406 177.375 310.683594 177.085938 310.480469 176.734375 C 309.746094 175.460938 309.570312 175.152344 318.179688 169.007812 C 318.050781 168.976562 317.894531 168.972656 317.746094 168.9375 C 317.351562 168.839844 316.984375 168.5625 316.78125 168.210938 C 316.179688 167.171875 316 166.855469 319.894531 163.777344 C 314.957031 166.71875 314.683594 166.644531 314.011719 166.480469 C 313.621094 166.378906 313.257812 166.109375 313.054688 165.757812 C 312.425781 164.667969 312.265625 164.390625 317.523438 160.292969 C 311.769531 163.738281 311.5 163.671875 310.789062 163.488281 C 310.394531 163.386719 310.035156 163.117188 309.832031 162.765625 C 309.183594 161.644531 309.046875 161.402344 315.25 156.730469 C 309.328125 160.296875 309.105469 160.25 308.386719 160.066406 C 307.992188 159.96875 307.636719 159.699219 307.433594 159.347656 C 306.679688 158.039062 306.539062 157.796875 315.945312 150.636719 C 308.230469 155.335938 307.613281 155.457031 306.78125 155.246094 C 306.386719 155.144531 306.007812 154.863281 305.804688 154.511719 C 305.261719 153.566406 305.054688 153.210938 308.625 150.519531 C 306.816406 151.464844 306.515625 151.390625 306.046875 151.273438 C 305.652344 151.171875 305.28125 150.894531 305.078125 150.542969 C 304.375 149.324219 304.246094 149.101562 312.023438 143.507812 C 306.558594 146.753906 306.242188 146.667969 305.550781 146.5 C 305.15625 146.398438 304.789062 146.121094 304.585938 145.769531 C 303.804688 144.421875 303.707031 144.25 314.933594 135.917969 C 306.707031 140.9375 306.121094 141.0625 305.289062 140.84375 C 304.894531 140.746094 304.523438 140.464844 304.320312 140.113281 C 303.542969 138.769531 303.390625 138.507812 313.507812 131.050781 C 305.988281 135.566406 305.671875 135.484375 304.902344 135.289062 C 304.507812 135.1875 304.136719 134.910156 303.933594 134.558594 C 303.203125 133.285156 303.070312 133.066406 311.570312 126.976562 C 305.117188 130.855469 304.863281 130.792969 304.128906 130.605469 C 303.738281 130.507812 303.375 130.234375 303.171875 129.886719 C 302.402344 128.546875 302.257812 128.292969 312.972656 120.308594 C 303.226562 126.222656 302.539062 126.382812 301.667969 126.164062 C 301.273438 126.0625 300.902344 125.785156 300.699219 125.433594 C 299.921875 124.09375 299.789062 123.859375 309.335938 117.054688 C 290.410156 128.585938 290.152344 128.523438 289.144531 128.269531 C 288.75 128.171875 288.386719 127.894531 288.183594 127.546875 C 287.378906 126.152344 287.21875 125.878906 299.148438 117.726562 C 289.652344 123.4375 289.328125 123.351562 288.519531 123.148438 C 288.128906 123.046875 287.761719 122.769531 287.558594 122.421875 C 286.78125 121.074219 286.660156 120.863281 298.335938 112.773438 C 289.144531 118.34375 288.859375 118.269531 288.042969 118.074219 C 287.648438 117.972656 287.285156 117.699219 287.082031 117.347656 C 286.304688 116 286.199219 115.820312 297.289062 107.785156 C 289.113281 112.691406 288.390625 112.835938 287.550781 112.628906 C 287.160156 112.527344 286.78125 112.246094 286.582031 111.894531 C 285.988281 110.871094 285.925781 110.761719 290.144531 106.097656 C 288.042969 107.347656 287.785156 107.34375 287.203125 107.199219 C 286.808594 107.101562 286.457031 106.835938 286.25 106.480469 C 285.835938 105.761719 286.082031 104.84375 286.796875 104.429688 C 286.960938 104.332031 287.136719 104.273438 287.3125 104.246094 C 288.027344 103.898438 290.347656 102.457031 291.917969 101.480469 C 296.867188 98.40625 297.03125 98.324219 297.832031 98.527344 C 298.230469 98.628906 298.578125 98.890625 298.785156 99.246094 C 299.207031 99.976562 297.660156 102.285156 294.140625 106.167969 C 297.488281 104.179688 301.558594 101.6875 304.980469 99.589844 C 319.671875 90.597656 319.824219 90.632812 320.785156 90.875 C 321.179688 90.976562 321.535156 91.246094 321.738281 91.597656 C 322.523438 92.949219 322.636719 93.144531 311.65625 101.109375 C 324.53125 93.285156 325.566406 92.980469 326.585938 93.234375 C 326.976562 93.332031 327.367188 93.625 327.570312 93.972656 C 328.308594 95.253906 328.472656 95.535156 318.820312 102.273438 C 328.550781 96.441406 329.425781 96.234375 330.289062 96.453125 C 330.683594 96.554688 331.058594 96.835938 331.261719 97.1875 C 332.035156 98.527344 332.210938 98.828125 321.515625 106.160156 C 331.0625 100.460938 331.941406 100.257812 332.816406 100.480469 C 333.207031 100.582031 333.585938 100.867188 333.789062 101.214844 C 334.507812 102.464844 334.660156 102.726562 326.6875 108.4375 C 333.3125 104.46875 333.613281 104.542969 334.34375 104.730469 C 334.738281 104.828125 335.101562 105.101562 335.304688 105.453125 C 336.101562 106.839844 336.144531 106.910156 324.011719 115.878906 C 334.125 109.757812 334.449219 109.835938 335.296875 110.050781 C 335.691406 110.152344 336.0625 110.429688 336.265625 110.78125 C 336.96875 111.996094 337.15625 112.316406 329.972656 117.539062 C 334.792969 114.6875 335.078125 114.753906 335.738281 114.921875 C 336.132812 115.019531 336.492188 115.292969 336.695312 115.644531 C 337.503906 117.042969 337.578125 117.175781 326.347656 125.386719 C 334.402344 120.492188 335.042969 120.363281 335.902344 120.585938 C 336.296875 120.683594 336.675781 120.964844 336.875 121.320312 C 337.65625 122.667969 337.71875 122.789062 326.007812 131.460938 C 334.894531 126.066406 335.191406 126.144531 336 126.347656 C 336.394531 126.449219 336.765625 126.726562 336.96875 127.078125 C 337.632812 128.230469 337.835938 128.585938 331.296875 133.394531 C 334.371094 131.628906 334.664062 131.703125 335.234375 131.851562 C 335.628906 131.949219 335.996094 132.222656 336.199219 132.574219 C 336.753906 133.535156 336.957031 133.890625 333.207031 136.710938 C 334.492188 136.070312 334.847656 136.097656 335.277344 136.207031 C 335.671875 136.304688 336.042969 136.582031 336.246094 136.933594 C 337.03125 138.292969 337.097656 138.40625 326.851562 146.152344 C 334.675781 141.445312 334.964844 141.53125 335.734375 141.726562 C 336.128906 141.824219 336.496094 142.097656 336.699219 142.449219 C 337.324219 143.535156 337.488281 143.820312 331.980469 148.011719 C 335.898438 145.707031 336.160156 145.773438 336.785156 145.929688 C 337.179688 146.027344 337.535156 146.296875 337.738281 146.648438 C 338.382812 147.761719 338.515625 147.992188 332.714844 152.46875 C 337.957031 149.328125 338.203125 149.394531 338.886719 149.566406 C 339.28125 149.667969 339.640625 149.9375 339.839844 150.289062 C 340.429688 151.304688 340.613281 151.621094 336.960938 154.523438 C 340.875 152.210938 341.347656 152.175781 342.015625 152.347656 C 342.414062 152.445312 342.785156 152.726562 342.988281 153.078125 C 343.652344 154.230469 343.820312 154.519531 337.519531 159.039062 C 346.613281 153.511719 347.445312 153.320312 348.359375 153.546875 C 348.753906 153.644531 349.144531 153.9375 349.347656 154.289062 C 350.054688 155.515625 350.234375 155.828125 341.59375 161.789062 C 350.777344 156.246094 351.511719 156.085938 352.359375 156.300781 C 352.753906 156.402344 353.125 156.679688 353.332031 157.03125 C 353.988281 158.175781 354.242188 158.609375 347.472656 163.292969 C 350.386719 161.722656 351.261719 161.53125 351.890625 161.695312 C 352.285156 161.792969 352.683594 162.09375 352.886719 162.441406 C 353.730469 163.910156 353.847656 164.109375 338.644531 174.476562 C 349.535156 167.921875 350.378906 167.699219 351.269531 167.929688 C 351.660156 168.027344 352.035156 168.308594 352.238281 168.660156 C 353.015625 170.003906 353.207031 170.335938 342.207031 177.769531 C 349.148438 173.671875 349.867188 173.539062 350.632812 173.734375 C 351.023438 173.835938 351.394531 174.117188 351.597656 174.464844 C 352.453125 175.949219 352.554688 176.117188 338.351562 185.679688 C 348.28125 179.671875 349.109375 179.476562 350.015625 179.707031 C 350.410156 179.804688 350.789062 180.089844 350.992188 180.4375 C 351.914062 182.035156 352.042969 182.253906 334.503906 194.113281 C 334.679688 194.105469 334.824219 194.132812 334.976562 194.167969 C 335.371094 194.269531 335.742188 194.546875 335.945312 194.898438 C 336.363281 195.617188 336.113281 196.535156 335.394531 196.953125 C 335.171875 197.082031 334.925781 197.148438 334.683594 197.152344 C 333.214844 197.761719 326.804688 201.722656 322.070312 204.644531 C 310.753906 211.640625 308.792969 212.726562 307.816406 212.726562 Z M 333.375 196.449219 Z M 333.375 196.445312 Z M 333.371094 196.441406 Z M 333.371094 196.4375 Z M 333.371094 196.4375 Z M 333.371094 196.433594 Z M 333.371094 196.429688 C 333.371094 196.429688 333.371094 196.429688 333.371094 196.433594 C 333.371094 196.433594 333.371094 196.433594 333.371094 196.429688 Z M 333.367188 196.421875 C 333.367188 196.421875 333.367188 196.425781 333.371094 196.429688 C 333.371094 196.425781 333.367188 196.425781 333.367188 196.421875 Z M 333.367188 196.417969 Z M 333.367188 196.417969 Z M 333.367188 196.414062 Z M 333.367188 196.410156 Z M 333.367188 196.40625 Z M 333.363281 196.40625 Z M 288.859375 104.964844 Z M 288.855469 104.964844 Z M 288.855469 104.960938 Z M 288.855469 104.957031 C 288.855469 104.957031 288.855469 104.960938 288.855469 104.960938 C 288.855469 104.960938 288.855469 104.960938 288.855469 104.957031 Z M 288.738281 104.785156 C 288.777344 104.839844 288.816406 104.894531 288.855469 104.957031 C 288.816406 104.894531 288.777344 104.839844 288.738281 104.785156 Z M 288.738281 104.785156 " fill-opacity="1" fill-rule="nonzero"/><g clip-path="url(#89079932d9)"><path fill="#000000" d="M 14.144531 150.738281 C 14.328125 150.277344 14.175781 149.789062 14.285156 149.316406 C 14.300781 150.164062 14.445312 151.007812 14.453125 151.847656 C 14.476562 154.886719 14.699219 157.910156 14.957031 160.933594 C 15.242188 164.265625 15.605469 167.597656 15.992188 170.917969 C 16.300781 173.601562 16.554688 176.292969 16.839844 178.980469 C 16.921875 179.742188 17.03125 180.5 17.007812 181.269531 C 17.003906 181.382812 16.964844 181.542969 17.125 181.566406 C 17.242188 181.585938 17.285156 181.449219 17.332031 181.355469 C 17.796875 180.496094 18.253906 179.632812 18.71875 178.777344 C 18.785156 178.648438 18.820312 178.488281 19.046875 178.410156 C 19.121094 179.148438 19.203125 179.867188 19.261719 180.59375 C 19.472656 183.242188 19.671875 185.890625 19.875 188.539062 C 19.878906 188.585938 19.882812 188.628906 19.882812 188.675781 C 19.925781 189.554688 19.925781 189.542969 20.832031 189.558594 C 22.695312 189.585938 24.5625 189.550781 26.410156 189.824219 C 28.554688 190.144531 30.445312 191.085938 32.148438 192.394531 C 33.140625 193.160156 33.652344 194.289062 34.136719 195.414062 C 34.34375 195.886719 34.34375 195.894531 34.71875 195.515625 C 35.074219 195.152344 35.445312 194.796875 35.785156 194.417969 C 36 194.171875 36.097656 194.160156 36.222656 194.492188 C 36.894531 196.25 37.40625 198.050781 37.753906 199.902344 C 38.320312 202.953125 38.488281 206.039062 38.609375 209.132812 C 38.683594 211.0625 38.453125 212.972656 38.476562 214.894531 C 38.480469 215.242188 38.308594 215.359375 37.996094 215.292969 C 37.511719 215.1875 37.027344 215.078125 36.550781 214.949219 C 36.222656 214.863281 36.105469 214.964844 36.121094 215.296875 C 36.152344 215.96875 36.074219 216.648438 36.179688 217.320312 C 36.21875 217.574219 36.09375 217.789062 35.980469 218 C 35.507812 218.921875 35.054688 219.859375 34.539062 220.757812 C 34.167969 221.402344 34.257812 222.058594 34.332031 222.726562 C 35.105469 229.902344 36.800781 236.832031 39.878906 243.390625 C 40.9375 245.644531 42.15625 247.800781 43.808594 249.679688 C 45.125 251.179688 46.628906 252.460938 48.410156 253.398438 C 48.792969 253.601562 48.972656 253.507812 49.144531 253.160156 C 49.332031 252.769531 49.558594 252.394531 49.753906 252.003906 C 49.871094 251.777344 50.007812 251.691406 50.257812 251.800781 C 53.417969 253.210938 56.683594 253.105469 59.980469 252.453125 C 63.910156 251.675781 67.546875 250.105469 71.101562 248.320312 C 75.378906 246.171875 79.441406 243.65625 83.402344 240.976562 C 83.710938 240.765625 83.871094 240.527344 83.917969 240.140625 C 84.359375 236.703125 84.753906 233.257812 85.082031 229.804688 C 85.378906 226.683594 85.664062 223.558594 85.988281 220.4375 C 86.347656 216.945312 86.742188 213.457031 87.128906 209.964844 C 87.210938 209.203125 87.300781 208.445312 87.394531 207.683594 C 87.449219 207.253906 87.222656 207.378906 86.992188 207.46875 C 83.902344 208.679688 80.8125 209.894531 77.714844 211.089844 C 76.675781 211.488281 75.648438 211.914062 74.539062 212.097656 C 74.355469 212.125 74.203125 212.214844 74.074219 212.347656 C 73.121094 213.332031 72.171875 214.316406 71.21875 215.296875 C 71.050781 215.46875 71.046875 215.636719 71.167969 215.820312 C 71.386719 216.144531 71.609375 216.46875 71.824219 216.792969 C 71.976562 217.027344 72.203125 217.058594 72.453125 217.058594 C 73.804688 217.066406 75.105469 216.773438 76.386719 216.367188 C 78.132812 215.8125 79.847656 215.160156 81.554688 214.492188 C 81.6875 214.4375 81.832031 214.300781 81.972656 214.414062 C 82.109375 214.527344 82.015625 214.695312 82 214.839844 C 81.832031 216.4375 81.664062 218.035156 81.503906 219.632812 C 81.300781 221.675781 81.101562 223.722656 80.902344 225.769531 C 80.710938 227.757812 80.535156 229.746094 80.324219 231.730469 C 80.109375 233.730469 79.855469 235.726562 79.628906 237.722656 C 79.597656 237.976562 79.484375 238.128906 79.28125 238.261719 C 75.253906 240.902344 71.121094 243.355469 66.75 245.382812 C 66.535156 245.484375 66.335938 245.550781 66.226562 245.277344 C 66.074219 244.90625 65.855469 244.941406 65.542969 245.078125 C 63.289062 246.085938 60.957031 246.882812 58.527344 247.347656 C 56.984375 247.644531 55.429688 247.703125 53.871094 247.429688 C 51.886719 247.085938 50.441406 245.894531 49.214844 244.394531 C 47.710938 242.558594 46.777344 240.402344 45.851562 238.246094 C 43.933594 233.769531 42.785156 229.085938 42.125 224.269531 C 41.804688 221.933594 41.609375 219.585938 41.472656 217.234375 C 41.363281 215.273438 41.578125 213.332031 41.652344 211.386719 C 41.710938 209.941406 41.589844 208.5 41.554688 207.0625 C 41.527344 205.890625 41.441406 204.722656 41.320312 203.558594 C 40.917969 199.75 40.230469 196.003906 38.636719 192.484375 C 37.378906 189.710938 35.277344 187.785156 32.59375 186.40625 C 30.308594 185.234375 27.910156 184.546875 25.359375 184.371094 C 24.953125 184.34375 24.835938 184.175781 24.8125 183.785156 C 24.6875 181.503906 24.460938 179.234375 24.214844 176.964844 C 24.019531 175.175781 23.839844 173.382812 23.644531 171.59375 C 23.386719 169.234375 23.109375 166.878906 22.867188 164.523438 C 22.683594 162.789062 22.527344 161.054688 22.390625 159.320312 C 22.277344 157.914062 22.195312 156.503906 22.125 155.09375 C 22.09375 154.46875 22.121094 154.484375 22.730469 154.449219 C 24.753906 154.324219 26.785156 154.378906 28.804688 154.199219 C 29.148438 154.167969 29.269531 154.027344 29.195312 153.710938 C 29.140625 153.476562 29.226562 153.375 29.453125 153.34375 C 33.40625 152.800781 35.453125 150.050781 37 146.761719 C 37.769531 145.125 38.039062 143.351562 38.257812 141.570312 C 38.632812 138.519531 38.628906 135.457031 38.628906 132.390625 C 38.628906 131.71875 38.527344 131.074219 38.257812 130.460938 C 37.777344 129.382812 37.765625 128.25 37.851562 127.101562 C 37.933594 125.976562 38.023438 124.851562 37.996094 123.722656 C 37.929688 120.972656 38.0625 118.226562 38.273438 115.484375 C 38.558594 111.828125 38.980469 108.191406 39.964844 104.644531 C 40.042969 104.363281 40.050781 103.996094 40.527344 104.21875 C 40.671875 104.285156 40.71875 104.121094 40.753906 104.003906 C 41.691406 100.808594 43.289062 97.992188 45.757812 95.742188 C 48.320312 93.40625 51.359375 91.972656 54.800781 91.5 C 56.875 91.214844 58.9375 91.367188 60.949219 92.003906 C 61.367188 92.136719 61.425781 92.074219 61.34375 91.648438 C 61.246094 91.148438 61.59375 91.382812 61.75 91.425781 C 63.195312 91.847656 64.605469 92.359375 65.984375 92.964844 C 69.511719 94.507812 72.898438 96.332031 76.28125 98.167969 C 78.449219 99.34375 80.695312 100.359375 82.925781 101.410156 C 85.195312 102.480469 87.4375 103.601562 89.558594 104.960938 C 90.035156 105.265625 90.207031 105.609375 90.175781 106.179688 C 89.980469 109.671875 89.726562 113.160156 89.378906 116.636719 C 89.085938 119.550781 88.765625 122.460938 88.621094 125.386719 C 88.570312 126.417969 88.492188 127.453125 88.453125 128.488281 C 88.441406 128.824219 88.359375 128.914062 88.027344 128.777344 C 87.164062 128.414062 86.382812 127.910156 85.59375 127.410156 C 82.921875 125.714844 80.027344 125 76.867188 125.53125 C 76.421875 125.605469 76.003906 125.785156 75.59375 125.972656 C 75.40625 126.058594 75.214844 126.167969 75.160156 125.839844 C 75.089844 125.425781 74.882812 125.574219 74.699219 125.734375 C 74.09375 126.253906 73.679688 126.914062 73.34375 127.628906 C 72.496094 129.429688 72.070312 131.339844 71.851562 133.308594 C 71.558594 135.9375 71.398438 138.574219 71.296875 141.214844 C 71.203125 143.597656 71.121094 145.984375 70.859375 148.359375 C 70.460938 151.953125 69.894531 155.507812 68.488281 158.867188 C 67.707031 160.734375 66.476562 162.277344 65.03125 163.660156 C 64.742188 163.9375 64.546875 164.183594 64.765625 164.589844 C 64.90625 164.855469 64.675781 165.007812 64.519531 165.15625 C 63.164062 166.445312 61.671875 167.5625 60.074219 168.53125 C 59.402344 168.933594 58.75 169.359375 58.085938 169.773438 C 57.828125 169.9375 57.777344 170.074219 58.085938 170.253906 C 58.417969 170.449219 58.71875 170.738281 59.097656 170.320312 C 59.203125 170.203125 59.382812 170.269531 59.53125 170.304688 C 62.050781 170.9375 64.574219 171.566406 67.09375 172.1875 C 67.4375 172.269531 67.679688 172.464844 67.890625 172.738281 C 69.164062 174.386719 70.003906 176.261719 70.71875 178.203125 C 71.640625 180.714844 72.472656 183.253906 72.96875 185.890625 C 73.371094 188.003906 73.636719 190.132812 73.761719 192.277344 C 73.867188 194.078125 73.984375 195.875 73.941406 197.679688 C 73.890625 199.707031 73.8125 201.734375 73.738281 203.761719 C 73.726562 204.109375 73.582031 204.460938 73.703125 204.8125 C 73.859375 204.8125 73.890625 204.695312 73.933594 204.609375 C 74.773438 202.792969 75.710938 201.027344 76.636719 199.257812 C 76.867188 198.820312 76.96875 198.371094 76.96875 197.875 C 76.964844 193.558594 76.757812 189.25 75.859375 185.015625 C 74.988281 180.902344 73.726562 176.910156 71.753906 173.171875 C 71.199219 172.121094 70.527344 171.136719 69.730469 170.253906 C 69.484375 169.984375 69.503906 169.828125 69.75 169.59375 C 70.949219 168.453125 72.070312 167.242188 73.0625 165.914062 C 75.089844 163.214844 76.214844 160.125 77.035156 156.898438 C 77.746094 154.082031 78.140625 151.214844 78.410156 148.324219 C 78.609375 146.199219 78.691406 144.070312 78.777344 141.941406 C 78.894531 138.984375 79.039062 136.03125 79.480469 133.101562 C 79.625 132.148438 79.625 132.160156 80.542969 132.449219 C 81.226562 132.664062 81.824219 133.027344 82.40625 133.433594 C 84.007812 134.558594 85.84375 135.214844 87.597656 136.03125 C 89.847656 137.078125 92.113281 138.085938 94.363281 139.125 C 94.710938 139.285156 94.804688 139.226562 94.820312 138.855469 C 94.902344 136.527344 94.996094 134.203125 95.09375 131.878906 C 95.222656 128.785156 95.441406 125.707031 95.773438 122.628906 C 96.152344 119.152344 96.601562 115.683594 96.914062 112.199219 C 97.066406 110.460938 97.195312 108.726562 97.167969 106.980469 C 97.160156 106.296875 97.289062 105.613281 97.296875 104.921875 C 97.378906 105.882812 97.21875 106.855469 97.496094 107.796875 L 97.496094 102.65625 C 97.199219 102.796875 97.027344 102.683594 96.980469 102.285156 C 96.953125 102.0625 96.976562 101.820312 96.777344 101.664062 C 96.480469 101.4375 96.167969 101.226562 95.859375 101.015625 C 95.71875 100.917969 95.589844 100.957031 95.515625 101.097656 C 95.328125 101.453125 95.121094 101.296875 94.898438 101.140625 C 94.019531 100.511719 93.117188 99.914062 92.1875 99.359375 C 89.25 97.617188 86.171875 96.148438 83.113281 94.644531 C 80.84375 93.527344 78.683594 92.21875 76.464844 91.015625 C 73.253906 89.273438 70.027344 87.570312 66.582031 86.320312 C 66.316406 86.226562 66.039062 86.160156 65.996094 85.789062 C 65.976562 85.605469 65.761719 85.582031 65.605469 85.523438 C 64.691406 85.183594 63.746094 84.929688 62.804688 84.679688 C 61.511719 84.34375 60.207031 84.070312 58.75 83.992188 C 59.140625 83.867188 59.441406 83.953125 59.703125 83.804688 L 53.386719 83.804688 C 53.585938 83.953125 53.84375 83.871094 54.148438 83.988281 C 52.996094 84.128906 51.949219 84.300781 50.925781 84.601562 C 47.335938 85.65625 44.027344 87.257812 41.179688 89.710938 C 37.664062 92.746094 35.347656 96.585938 33.796875 100.917969 C 32.714844 103.945312 32.160156 107.089844 31.785156 110.273438 C 31.398438 113.574219 31.210938 116.886719 31.175781 120.203125 C 31.152344 122.519531 31.242188 124.835938 31.066406 127.144531 C 30.933594 128.9375 31.121094 130.679688 31.707031 132.378906 C 31.753906 132.519531 31.789062 132.671875 31.789062 132.820312 C 31.820312 135.867188 31.828125 138.917969 31.347656 141.941406 C 31.097656 143.539062 30.542969 144.984375 29.394531 146.164062 C 29.109375 146.457031 28.78125 146.613281 28.371094 146.664062 C 26.488281 146.886719 24.589844 146.839844 22.703125 146.902344 C 20.136719 146.988281 17.566406 146.820312 14.996094 147.007812 C 14.714844 147.027344 14.425781 147.050781 14.148438 146.945312 L 14.148438 150.734375 Z M 19.636719 162.53125 C 19.636719 162.785156 19.703125 163.050781 19.5 163.261719 C 19.195312 163.574219 18.882812 163.878906 18.574219 164.1875 C 18.433594 164.324219 18.339844 164.300781 18.308594 164.101562 C 18.277344 163.90625 18.246094 163.714844 18.226562 163.523438 C 18.152344 162.71875 18.109375 161.90625 18.003906 161.105469 C 17.859375 159.976562 17.914062 159.917969 19.011719 160.191406 C 19.296875 160.261719 19.449219 160.382812 19.46875 160.699219 C 19.507812 161.3125 19.578125 161.921875 19.636719 162.535156 Z M 19.636719 162.53125 " fill-opacity="1" fill-rule="nonzero"/></g><path fill="#1aede6" d="M 59.371094 247.511719 C 59.515625 247.511719 59.644531 247.480469 59.796875 247.441406 C 60.1875 247.34375 60.539062 247.082031 60.742188 246.726562 C 61.390625 245.601562 61.484375 245.445312 56.027344 240.5 C 64.351562 245.621094 64.582031 245.566406 65.417969 245.351562 C 65.816406 245.253906 66.183594 244.980469 66.386719 244.628906 C 67.070312 243.445312 67.183594 243.246094 60.304688 237.851562 C 69.105469 243.25 69.285156 243.203125 70.121094 242.992188 C 70.515625 242.894531 70.875 242.625 71.078125 242.273438 C 71.800781 241.015625 71.921875 240.804688 63.757812 234.753906 C 73.5 240.664062 73.796875 240.585938 74.636719 240.371094 C 75.03125 240.269531 75.398438 239.992188 75.601562 239.640625 C 76.226562 238.558594 76.445312 238.183594 71.054688 234.257812 C 77.09375 237.824219 77.390625 237.757812 78.078125 237.578125 C 78.46875 237.476562 78.828125 237.203125 79.03125 236.855469 C 79.621094 235.839844 79.851562 235.433594 75.503906 232.261719 C 77.53125 233.308594 78.042969 233.316406 78.550781 233.191406 C 78.945312 233.089844 79.335938 232.796875 79.535156 232.449219 C 80.300781 231.121094 80.476562 230.820312 70.171875 223.515625 C 77.484375 227.917969 78.257812 228.0625 79.09375 227.851562 C 79.488281 227.75 79.875 227.460938 80.082031 227.109375 C 80.527344 226.328125 80.554688 226.289062 78.453125 222.371094 C 78.992188 222.632812 79.246094 222.632812 79.644531 222.535156 C 80.042969 222.4375 80.386719 222.175781 80.589844 221.820312 C 81.003906 221.097656 80.75 220.179688 80.03125 219.769531 C 79.921875 219.703125 79.804688 219.65625 79.683594 219.621094 C 79.339844 219.4375 78.480469 218.898438 77.890625 218.527344 C 75.449219 217 75.136719 216.8125 74.398438 216.992188 C 74.003906 217.089844 73.65625 217.351562 73.453125 217.703125 C 73.136719 218.246094 73.789062 220.03125 75.410156 223.050781 C 75.429688 223.085938 75.445312 223.121094 75.464844 223.15625 C 71.769531 221.027344 65.898438 217.398438 61.214844 214.496094 C 44.542969 204.175781 43.644531 203.851562 42.546875 204.132812 C 42.152344 204.230469 41.765625 204.515625 41.5625 204.867188 C 40.71875 206.335938 40.636719 206.476562 54.101562 215.914062 C 43.847656 209.644531 43.605469 209.703125 42.738281 209.921875 C 42.347656 210.023438 41.980469 210.296875 41.777344 210.648438 C 41.140625 211.75 40.933594 212.105469 46.53125 216.050781 C 43.390625 214.289062 43.082031 214.371094 42.542969 214.511719 C 42.152344 214.609375 41.785156 214.882812 41.585938 215.230469 C 40.933594 216.359375 40.765625 216.648438 47.125 221.167969 C 43.660156 219.179688 43.351562 219.257812 42.765625 219.402344 C 42.371094 219.5 42.007812 219.777344 41.804688 220.128906 C 41.105469 221.332031 40.949219 221.601562 47.964844 226.84375 C 44.59375 224.90625 44.089844 224.875 43.464844 225.035156 C 43.070312 225.132812 42.695312 225.414062 42.492188 225.765625 C 41.832031 226.910156 41.707031 227.125 47.96875 232.046875 C 45.484375 230.605469 45.234375 230.671875 44.679688 230.816406 C 44.285156 230.917969 43.921875 231.1875 43.71875 231.539062 C 43.066406 232.660156 43 232.78125 48.601562 237.84375 C 47.609375 237.339844 47.378906 237.402344 46.96875 237.5 C 46.574219 237.601562 46.21875 237.867188 46.015625 238.222656 C 45.601562 238.941406 45.847656 239.863281 46.566406 240.273438 C 46.742188 240.378906 46.933594 240.4375 47.125 240.464844 C 47.984375 240.867188 50.992188 242.730469 53.027344 243.988281 C 57.816406 246.953125 58.769531 247.511719 59.378906 247.511719 Z M 48.589844 239.765625 Z M 48.589844 239.761719 Z M 48.589844 239.757812 Z M 48.597656 239.75 C 48.597656 239.75 48.597656 239.75 48.597656 239.753906 C 48.597656 239.753906 48.597656 239.753906 48.597656 239.75 Z M 48.597656 239.746094 C 48.597656 239.746094 48.597656 239.746094 48.597656 239.75 C 48.597656 239.75 48.597656 239.75 48.597656 239.746094 Z M 48.597656 239.746094 Z M 48.597656 239.742188 C 48.597656 239.742188 48.597656 239.742188 48.597656 239.746094 C 48.597656 239.746094 48.597656 239.742188 48.597656 239.742188 Z M 48.597656 239.742188 Z M 48.597656 239.738281 Z M 48.601562 239.734375 Z M 48.601562 239.730469 Z M 48.601562 239.730469 Z M 48.601562 239.730469 " fill-opacity="1" fill-rule="nonzero"/><path fill="#1aede6" d="M 27.109375 185.441406 C 27.214844 185.441406 27.332031 185.429688 27.449219 185.40625 C 27.859375 185.3125 28.226562 185.046875 28.4375 184.683594 C 28.855469 183.964844 28.609375 183.046875 27.894531 182.628906 C 27.808594 182.582031 27.726562 182.542969 27.640625 182.511719 C 27.589844 182.480469 27.535156 182.4375 27.480469 182.402344 C 27.011719 182.070312 26.515625 181.730469 25.824219 181.886719 C 25.414062 181.980469 25.046875 182.25 24.839844 182.621094 C 24.433594 183.34375 24.6875 184.261719 25.414062 184.667969 C 25.476562 184.703125 25.546875 184.738281 25.613281 184.761719 C 25.660156 184.792969 25.707031 184.828125 25.757812 184.863281 C 26.183594 185.15625 26.585938 185.441406 27.109375 185.441406 Z M 27.109375 185.441406 " fill-opacity="1" fill-rule="nonzero"/><path fill="#1aede6" d="M 67.871094 212.730469 C 68.023438 212.730469 68.152344 212.703125 68.28125 212.667969 C 68.679688 212.570312 69.050781 212.292969 69.253906 211.941406 C 70.078125 210.511719 70.257812 210.203125 57.414062 201.457031 C 66.449219 206.886719 67.304688 207.082031 68.183594 206.855469 C 68.574219 206.757812 68.960938 206.46875 69.164062 206.117188 C 69.933594 204.789062 70.175781 204.363281 59.230469 196.835938 C 67.28125 201.621094 67.636719 201.527344 68.398438 201.332031 C 68.792969 201.234375 69.160156 200.953125 69.363281 200.605469 C 70.125 199.289062 70.335938 198.921875 59.882812 191.824219 C 66.949219 196 67.6875 196.128906 68.457031 195.933594 C 68.851562 195.835938 69.222656 195.554688 69.425781 195.207031 C 70.300781 193.691406 70.390625 193.539062 53.476562 182.019531 C 66.292969 189.859375 67.027344 190.078125 68.003906 189.832031 C 68.398438 189.730469 68.769531 189.453125 68.972656 189.101562 C 69.679688 187.878906 69.898438 187.5 62.082031 182.1875 C 65.246094 183.929688 66.101562 184.125 66.734375 183.960938 C 67.125 183.863281 67.515625 183.570312 67.71875 183.222656 C 68.402344 182.035156 68.589844 181.714844 60.671875 176.238281 C 63.171875 177.605469 63.671875 177.609375 64.230469 177.472656 C 64.625 177.375 65.007812 177.085938 65.210938 176.734375 C 65.945312 175.460938 66.121094 175.152344 57.511719 169.007812 C 57.640625 168.976562 57.796875 168.972656 57.945312 168.9375 C 58.339844 168.839844 58.707031 168.5625 58.910156 168.210938 C 59.511719 167.171875 59.691406 166.855469 55.796875 163.777344 C 60.734375 166.71875 61.007812 166.644531 61.679688 166.480469 C 62.070312 166.378906 62.433594 166.109375 62.636719 165.757812 C 63.265625 164.667969 63.425781 164.390625 58.167969 160.292969 C 63.921875 163.738281 64.191406 163.671875 64.902344 163.488281 C 65.296875 163.386719 65.65625 163.117188 65.859375 162.765625 C 66.507812 161.644531 66.644531 161.402344 60.441406 156.730469 C 66.363281 160.296875 66.585938 160.25 67.304688 160.066406 C 67.699219 159.96875 68.054688 159.699219 68.257812 159.347656 C 69.011719 158.039062 69.152344 157.796875 59.746094 150.636719 C 67.460938 155.335938 68.078125 155.457031 68.910156 155.246094 C 69.308594 155.144531 69.683594 154.863281 69.886719 154.511719 C 70.429688 153.566406 70.636719 153.210938 67.066406 150.519531 C 68.875 151.464844 69.175781 151.390625 69.648438 151.273438 C 70.039062 151.171875 70.410156 150.894531 70.613281 150.542969 C 71.316406 149.324219 71.445312 149.101562 63.667969 143.507812 C 69.132812 146.753906 69.449219 146.667969 70.140625 146.5 C 70.535156 146.398438 70.902344 146.121094 71.105469 145.769531 C 71.886719 144.421875 71.984375 144.25 60.757812 135.917969 C 68.988281 140.9375 69.570312 141.0625 70.402344 140.84375 C 70.796875 140.746094 71.167969 140.464844 71.371094 140.113281 C 72.148438 138.769531 72.300781 138.507812 62.183594 131.050781 C 69.703125 135.566406 70.019531 135.484375 70.789062 135.289062 C 71.183594 135.1875 71.554688 134.910156 71.757812 134.558594 C 72.488281 133.285156 72.621094 133.066406 64.125 126.976562 C 70.574219 130.855469 70.828125 130.792969 71.5625 130.605469 C 71.953125 130.507812 72.316406 130.234375 72.519531 129.886719 C 73.289062 128.546875 73.433594 128.292969 62.71875 120.308594 C 72.464844 126.222656 73.152344 126.382812 74.023438 126.164062 C 74.417969 126.0625 74.789062 125.785156 74.992188 125.433594 C 75.769531 124.09375 75.902344 123.859375 66.355469 117.054688 C 85.28125 128.585938 85.539062 128.523438 86.546875 128.269531 C 86.941406 128.171875 87.304688 127.894531 87.507812 127.546875 C 88.3125 126.152344 88.472656 125.878906 76.542969 117.726562 C 86.039062 123.4375 86.363281 123.351562 87.171875 123.148438 C 87.5625 123.046875 87.933594 122.769531 88.132812 122.421875 C 88.910156 121.074219 89.03125 120.863281 77.355469 112.773438 C 86.546875 118.34375 86.835938 118.269531 87.648438 118.074219 C 88.042969 117.972656 88.40625 117.699219 88.609375 117.347656 C 89.386719 116 89.492188 115.820312 78.402344 107.785156 C 86.578125 112.691406 87.300781 112.835938 88.140625 112.628906 C 88.53125 112.527344 88.910156 112.246094 89.109375 111.894531 C 89.703125 110.871094 89.765625 110.761719 85.546875 106.097656 C 87.648438 107.347656 87.90625 107.34375 88.488281 107.199219 C 88.882812 107.101562 89.238281 106.835938 89.441406 106.480469 C 89.859375 105.761719 89.609375 104.84375 88.894531 104.429688 C 88.730469 104.332031 88.554688 104.273438 88.378906 104.246094 C 87.664062 103.898438 85.34375 102.457031 83.773438 101.480469 C 78.824219 98.40625 78.660156 98.324219 77.859375 98.527344 C 77.460938 98.628906 77.113281 98.890625 76.90625 99.246094 C 76.484375 99.976562 78.03125 102.285156 81.550781 106.167969 C 78.203125 104.179688 74.132812 101.6875 70.710938 99.589844 C 56.019531 90.597656 55.867188 90.632812 54.90625 90.875 C 54.515625 90.976562 54.15625 91.246094 53.953125 91.597656 C 53.167969 92.949219 53.054688 93.144531 64.035156 101.109375 C 51.160156 93.285156 50.125 92.980469 49.105469 93.234375 C 48.714844 93.332031 48.324219 93.625 48.125 93.972656 C 47.386719 95.253906 47.21875 95.535156 56.871094 102.273438 C 47.140625 96.441406 46.265625 96.234375 45.402344 96.453125 C 45.011719 96.554688 44.632812 96.835938 44.429688 97.1875 C 43.65625 98.527344 43.480469 98.828125 54.175781 106.160156 C 44.628906 100.460938 43.75 100.257812 42.875 100.480469 C 42.484375 100.582031 42.105469 100.867188 41.902344 101.214844 C 41.183594 102.464844 41.03125 102.726562 49.003906 108.4375 C 42.378906 104.46875 42.078125 104.542969 41.347656 104.730469 C 40.957031 104.828125 40.589844 105.101562 40.386719 105.453125 C 39.589844 106.839844 39.546875 106.910156 51.679688 115.878906 C 41.566406 109.757812 41.242188 109.835938 40.394531 110.050781 C 40 110.152344 39.628906 110.429688 39.425781 110.78125 C 38.722656 111.996094 38.535156 112.316406 45.71875 117.539062 C 40.898438 114.6875 40.613281 114.753906 39.953125 114.921875 C 39.558594 115.019531 39.199219 115.292969 38.996094 115.644531 C 38.1875 117.042969 38.113281 117.175781 49.34375 125.386719 C 41.289062 120.492188 40.648438 120.363281 39.789062 120.585938 C 39.394531 120.683594 39.015625 120.964844 38.816406 121.320312 C 38.035156 122.667969 37.972656 122.789062 49.683594 131.460938 C 40.796875 126.066406 40.5 126.144531 39.691406 126.347656 C 39.296875 126.449219 38.925781 126.726562 38.722656 127.078125 C 38.058594 128.230469 37.855469 128.585938 44.394531 133.394531 C 41.320312 131.628906 41.027344 131.703125 40.457031 131.851562 C 40.0625 131.949219 39.695312 132.222656 39.492188 132.574219 C 38.9375 133.535156 38.734375 133.890625 42.484375 136.710938 C 41.199219 136.070312 40.84375 136.097656 40.414062 136.207031 C 40.023438 136.304688 39.648438 136.582031 39.445312 136.933594 C 38.660156 138.292969 38.59375 138.40625 48.839844 146.152344 C 41.015625 141.445312 40.726562 141.53125 39.957031 141.726562 C 39.5625 141.824219 39.195312 142.097656 38.992188 142.449219 C 38.367188 143.535156 38.203125 143.820312 43.710938 148.011719 C 39.792969 145.707031 39.53125 145.773438 38.90625 145.929688 C 38.515625 146.027344 38.15625 146.296875 37.953125 146.648438 C 37.308594 147.761719 37.175781 147.992188 42.980469 152.46875 C 37.734375 149.328125 37.488281 149.394531 36.804688 149.566406 C 36.410156 149.667969 36.054688 149.9375 35.851562 150.289062 C 35.261719 151.304688 35.078125 151.621094 38.730469 154.523438 C 34.816406 152.210938 34.34375 152.175781 33.675781 152.347656 C 33.277344 152.445312 32.90625 152.726562 32.703125 153.078125 C 32.039062 154.230469 31.871094 154.519531 38.171875 159.039062 C 29.078125 153.511719 28.246094 153.320312 27.332031 153.546875 C 26.9375 153.644531 26.546875 153.9375 26.347656 154.289062 C 25.636719 155.515625 25.457031 155.828125 34.097656 161.789062 C 24.917969 156.246094 24.179688 156.085938 23.332031 156.300781 C 22.9375 156.402344 22.566406 156.679688 22.359375 157.03125 C 21.703125 158.175781 21.449219 158.609375 28.21875 163.292969 C 25.304688 161.722656 24.429688 161.53125 23.800781 161.695312 C 23.410156 161.792969 23.007812 162.09375 22.804688 162.441406 C 21.960938 163.910156 21.84375 164.109375 37.046875 174.476562 C 26.15625 167.921875 25.3125 167.699219 24.421875 167.929688 C 24.03125 168.027344 23.65625 168.308594 23.453125 168.660156 C 22.675781 170.003906 22.484375 170.335938 33.484375 177.769531 C 26.542969 173.671875 25.824219 173.539062 25.058594 173.734375 C 24.667969 173.835938 24.296875 174.117188 24.09375 174.464844 C 23.238281 175.949219 23.136719 176.117188 37.339844 185.679688 C 27.410156 179.671875 26.582031 179.476562 25.675781 179.707031 C 25.28125 179.804688 24.902344 180.089844 24.699219 180.4375 C 23.777344 182.035156 23.648438 182.253906 41.1875 194.113281 C 41.011719 194.105469 40.867188 194.132812 40.714844 194.167969 C 40.320312 194.269531 39.949219 194.546875 39.746094 194.898438 C 39.332031 195.617188 39.578125 196.535156 40.296875 196.953125 C 40.519531 197.082031 40.765625 197.148438 41.007812 197.152344 C 42.476562 197.761719 48.886719 201.722656 53.621094 204.644531 C 64.9375 211.640625 66.898438 212.726562 67.878906 212.726562 Z M 42.316406 196.449219 Z M 42.316406 196.445312 Z M 42.320312 196.441406 Z M 42.320312 196.4375 Z M 42.320312 196.4375 Z M 42.320312 196.433594 Z M 42.320312 196.429688 C 42.320312 196.429688 42.320312 196.429688 42.320312 196.433594 C 42.320312 196.433594 42.320312 196.433594 42.320312 196.429688 Z M 42.328125 196.421875 C 42.328125 196.421875 42.324219 196.425781 42.320312 196.429688 C 42.320312 196.425781 42.324219 196.425781 42.328125 196.421875 Z M 42.328125 196.417969 Z M 42.328125 196.417969 Z M 42.328125 196.414062 Z M 42.328125 196.410156 Z M 42.328125 196.40625 Z M 42.328125 196.40625 Z M 86.835938 104.964844 Z M 86.835938 104.964844 Z M 86.835938 104.960938 Z M 86.835938 104.957031 C 86.835938 104.957031 86.835938 104.960938 86.835938 104.960938 C 86.835938 104.960938 86.835938 104.960938 86.835938 104.957031 Z M 86.953125 104.785156 C 86.914062 104.839844 86.875 104.894531 86.835938 104.957031 C 86.875 104.894531 86.914062 104.839844 86.953125 104.785156 Z M 86.953125 104.785156 " fill-opacity="1" fill-rule="nonzero"/><g fill="#ffffff" fill-opacity="1"><g transform="translate(105.313718, 143.734383)"><g><path d="M 30.109375 1.125 L 26.328125 0.90625 C 25.867188 0.90625 25.414062 0.914062 24.96875 0.9375 C 24.53125 0.96875 23.867188 1.050781 22.984375 1.1875 L 20.8125 -1.75 L 10.125 -15.640625 L 10.625 -17.53125 C 11.550781 -17.394531 12.363281 -17.328125 13.0625 -17.328125 C 13.757812 -17.328125 14.617188 -17.40625 15.640625 -17.5625 C 16.671875 -17.726562 17.6875 -18.300781 18.6875 -19.28125 C 19.6875 -20.257812 20.1875 -21.445312 20.1875 -22.84375 C 20.1875 -24.707031 19.554688 -26.101562 18.296875 -27.03125 C 17.222656 -27.726562 15.851562 -28.078125 14.1875 -28.078125 C 13.4375 -28.078125 12.769531 -28.066406 12.1875 -28.046875 C 11.601562 -28.023438 11.054688 -27.921875 10.546875 -27.734375 C 10.453125 -27.453125 10.40625 -26.984375 10.40625 -26.328125 L 10.40625 -5.03125 C 10.40625 -3.632812 10.59375 -2.757812 10.96875 -2.40625 C 11.34375 -2.0625 12.503906 -1.890625 14.453125 -1.890625 L 14.453125 1.1875 C 13.429688 1.1875 12.328125 1.148438 11.140625 1.078125 C 9.953125 1.015625 8.679688 0.957031 7.328125 0.90625 C 6.679688 0.90625 5.492188 0.953125 3.765625 1.046875 C 2.046875 1.140625 0.90625 1.1875 0.34375 1.1875 L 0.34375 -1.890625 C 2.257812 -1.890625 3.425781 -2.0625 3.84375 -2.40625 C 4.257812 -2.757812 4.46875 -3.632812 4.46875 -5.03125 L 4.46875 -25.359375 C 4.46875 -26.796875 4.269531 -27.6875 3.875 -28.03125 C 3.476562 -28.382812 2.300781 -28.5625 0.34375 -28.5625 L 0.34375 -31.5 L 8.734375 -31.296875 C 9.617188 -31.296875 11.109375 -31.328125 13.203125 -31.390625 C 15.296875 -31.460938 16.390625 -31.5 16.484375 -31.5 C 19.648438 -31.5 22.117188 -30.78125 23.890625 -29.34375 C 25.515625 -27.988281 26.328125 -26.191406 26.328125 -23.953125 C 26.328125 -21.816406 25.5625 -19.929688 24.03125 -18.296875 C 22.632812 -16.859375 20.722656 -15.765625 18.296875 -15.015625 L 27.515625 -2.859375 C 27.660156 -2.765625 27.847656 -2.648438 28.078125 -2.515625 C 28.679688 -2.191406 29.359375 -1.957031 30.109375 -1.8125 Z M 30.109375 1.125 "/></g></g></g><g fill="#ffffff" fill-opacity="1"><g transform="translate(134.862556, 143.734383)"><g><path d="M 14.453125 1.1875 C 13.429688 1.1875 12.328125 1.148438 11.140625 1.078125 C 9.953125 1.015625 8.679688 0.957031 7.328125 0.90625 C 6.679688 0.90625 5.492188 0.953125 3.765625 1.046875 C 2.046875 1.140625 0.90625 1.1875 0.34375 1.1875 L 0.34375 -1.890625 C 2.257812 -1.890625 3.425781 -2.0625 3.84375 -2.40625 C 4.257812 -2.757812 4.46875 -3.632812 4.46875 -5.03125 L 4.46875 -25.359375 C 4.46875 -26.796875 4.269531 -27.6875 3.875 -28.03125 C 3.476562 -28.382812 2.300781 -28.5625 0.34375 -28.5625 L 0.34375 -31.578125 C 1.601562 -31.578125 3.046875 -31.53125 4.671875 -31.4375 C 6.304688 -31.34375 7.191406 -31.296875 7.328125 -31.296875 C 8.117188 -31.296875 9.328125 -31.34375 10.953125 -31.4375 C 12.585938 -31.53125 13.753906 -31.578125 14.453125 -31.578125 L 14.453125 -28.5625 C 12.546875 -28.5625 11.394531 -28.382812 11 -28.03125 C 10.601562 -27.6875 10.40625 -26.796875 10.40625 -25.359375 L 10.40625 -5.03125 C 10.40625 -3.632812 10.59375 -2.757812 10.96875 -2.40625 C 11.34375 -2.0625 12.503906 -1.890625 14.453125 -1.890625 Z M 14.453125 1.1875 "/></g></g></g><g fill="#ffffff" fill-opacity="1"><g transform="translate(149.741756, 143.734383)"><g><path d="M 34.09375 -17.109375 C 34.09375 -11.660156 32.203125 -7.257812 28.421875 -3.90625 C 24.648438 -0.550781 19.925781 1.125 14.25 1.125 L 8.453125 0.90625 C 7.847656 0.90625 6.738281 0.953125 5.125 1.046875 C 3.519531 1.140625 2.414062 1.1875 1.8125 1.1875 L 1.8125 -1.890625 C 2.75 -2.078125 3.367188 -2.273438 3.671875 -2.484375 C 3.972656 -2.691406 4.125 -3.117188 4.125 -3.765625 L 4.125 -24.875 C 4.125 -26.5 3.910156 -27.507812 3.484375 -27.90625 C 3.066406 -28.300781 2 -28.5 0.28125 -28.5 L 0.28125 -31.5 L 9.5625 -31.296875 C 10.59375 -31.296875 12.0625 -31.328125 13.96875 -31.390625 C 15.875 -31.460938 17.296875 -31.5 18.234375 -31.5 C 22.742188 -31.5 26.515625 -30.21875 29.546875 -27.65625 C 32.578125 -25.09375 34.09375 -21.578125 34.09375 -17.109375 Z M 27.65625 -15.78125 C 27.65625 -19.925781 26.46875 -23 24.09375 -25 C 21.90625 -26.820312 18.90625 -27.734375 15.09375 -27.734375 C 14.625 -27.734375 13.84375 -27.695312 12.75 -27.625 C 11.65625 -27.550781 10.78125 -27.515625 10.125 -27.515625 C 10.082031 -27.191406 10.046875 -26.878906 10.015625 -26.578125 C 9.992188 -26.273438 9.984375 -25.890625 9.984375 -25.421875 L 9.984375 -5.796875 C 9.984375 -5.328125 9.984375 -4.882812 9.984375 -4.46875 C 9.984375 -4.050781 10.03125 -3.539062 10.125 -2.9375 C 11.101562 -2.75 11.78125 -2.640625 12.15625 -2.609375 C 12.53125 -2.585938 12.945312 -2.578125 13.40625 -2.578125 C 18.488281 -2.578125 22.191406 -3.835938 24.515625 -6.359375 C 26.609375 -8.492188 27.65625 -11.632812 27.65625 -15.78125 Z M 27.65625 -15.78125 "/></g></g></g><g fill="#ffffff" fill-opacity="1"><g transform="translate(183.901059, 143.734383)"><g><path d="M 34.09375 -17.109375 C 34.09375 -11.660156 32.203125 -7.257812 28.421875 -3.90625 C 24.648438 -0.550781 19.925781 1.125 14.25 1.125 L 8.453125 0.90625 C 7.847656 0.90625 6.738281 0.953125 5.125 1.046875 C 3.519531 1.140625 2.414062 1.1875 1.8125 1.1875 L 1.8125 -1.890625 C 2.75 -2.078125 3.367188 -2.273438 3.671875 -2.484375 C 3.972656 -2.691406 4.125 -3.117188 4.125 -3.765625 L 4.125 -24.875 C 4.125 -26.5 3.910156 -27.507812 3.484375 -27.90625 C 3.066406 -28.300781 2 -28.5 0.28125 -28.5 L 0.28125 -31.5 L 9.5625 -31.296875 C 10.59375 -31.296875 12.0625 -31.328125 13.96875 -31.390625 C 15.875 -31.460938 17.296875 -31.5 18.234375 -31.5 C 22.742188 -31.5 26.515625 -30.21875 29.546875 -27.65625 C 32.578125 -25.09375 34.09375 -21.578125 34.09375 -17.109375 Z M 27.65625 -15.78125 C 27.65625 -19.925781 26.46875 -23 24.09375 -25 C 21.90625 -26.820312 18.90625 -27.734375 15.09375 -27.734375 C 14.625 -27.734375 13.84375 -27.695312 12.75 -27.625 C 11.65625 -27.550781 10.78125 -27.515625 10.125 -27.515625 C 10.082031 -27.191406 10.046875 -26.878906 10.015625 -26.578125 C 9.992188 -26.273438 9.984375 -25.890625 9.984375 -25.421875 L 9.984375 -5.796875 C 9.984375 -5.328125 9.984375 -4.882812 9.984375 -4.46875 C 9.984375 -4.050781 10.03125 -3.539062 10.125 -2.9375 C 11.101562 -2.75 11.78125 -2.640625 12.15625 -2.609375 C 12.53125 -2.585938 12.945312 -2.578125 13.40625 -2.578125 C 18.488281 -2.578125 22.191406 -3.835938 24.515625 -6.359375 C 26.609375 -8.492188 27.65625 -11.632812 27.65625 -15.78125 Z M 27.65625 -15.78125 "/></g></g></g><g fill="#ffffff" fill-opacity="1"><g transform="translate(218.060362, 143.734383)"><g><path d="M 36.390625 1.1875 C 35.273438 1.1875 33.945312 1.140625 32.40625 1.046875 C 30.875 0.953125 29.804688 0.90625 29.203125 0.90625 C 28.546875 0.90625 27.367188 0.953125 25.671875 1.046875 C 23.972656 1.140625 22.820312 1.1875 22.21875 1.1875 L 22.21875 -1.890625 C 24.125 -1.890625 25.285156 -2.0625 25.703125 -2.40625 C 26.117188 -2.757812 26.328125 -3.632812 26.328125 -5.03125 L 26.265625 -14.390625 L 10.484375 -14.390625 L 10.40625 -5.03125 C 10.40625 -3.632812 10.59375 -2.757812 10.96875 -2.40625 C 11.34375 -2.0625 12.503906 -1.890625 14.453125 -1.890625 L 14.453125 1.1875 C 13.429688 1.1875 12.328125 1.148438 11.140625 1.078125 C 9.953125 1.015625 8.679688 0.957031 7.328125 0.90625 C 6.679688 0.90625 5.492188 0.953125 3.765625 1.046875 C 2.046875 1.140625 0.90625 1.1875 0.34375 1.1875 L 0.34375 -1.890625 C 2.257812 -1.890625 3.425781 -2.0625 3.84375 -2.40625 C 4.257812 -2.757812 4.46875 -3.632812 4.46875 -5.03125 L 4.46875 -25.359375 C 4.46875 -26.796875 4.269531 -27.6875 3.875 -28.03125 C 3.476562 -28.382812 2.300781 -28.5625 0.34375 -28.5625 L 0.34375 -31.578125 C 1.601562 -31.578125 3.046875 -31.53125 4.671875 -31.4375 C 6.304688 -31.34375 7.191406 -31.296875 7.328125 -31.296875 C 8.117188 -31.296875 9.328125 -31.34375 10.953125 -31.4375 C 12.585938 -31.53125 13.753906 -31.578125 14.453125 -31.578125 L 14.453125 -28.5625 C 12.503906 -28.5625 11.332031 -28.382812 10.9375 -28.03125 C 10.539062 -27.6875 10.34375 -26.796875 10.34375 -25.359375 L 10.484375 -18.234375 L 26.328125 -18.015625 L 26.328125 -25.359375 C 26.328125 -26.796875 26.140625 -27.6875 25.765625 -28.03125 C 25.398438 -28.382812 24.21875 -28.5625 22.21875 -28.5625 L 22.21875 -31.578125 C 23.519531 -31.578125 24.972656 -31.53125 26.578125 -31.4375 C 28.179688 -31.34375 29.054688 -31.296875 29.203125 -31.296875 C 29.992188 -31.296875 31.210938 -31.34375 32.859375 -31.4375 C 34.515625 -31.53125 35.691406 -31.578125 36.390625 -31.578125 L 36.390625 -28.5625 C 34.484375 -28.5625 33.316406 -28.375 32.890625 -28 C 32.472656 -27.632812 32.265625 -26.753906 32.265625 -25.359375 L 32.265625 -5.03125 C 32.265625 -3.632812 32.460938 -2.757812 32.859375 -2.40625 C 33.253906 -2.0625 34.429688 -1.890625 36.390625 -1.890625 Z M 36.390625 1.1875 "/></g></g></g><g fill="#ffffff" fill-opacity="1"><g transform="translate(254.804318, 143.734383)"><g><path d="M 14.453125 1.1875 C 13.429688 1.1875 12.328125 1.148438 11.140625 1.078125 C 9.953125 1.015625 8.679688 0.957031 7.328125 0.90625 C 6.679688 0.90625 5.492188 0.953125 3.765625 1.046875 C 2.046875 1.140625 0.90625 1.1875 0.34375 1.1875 L 0.34375 -1.890625 C 2.257812 -1.890625 3.425781 -2.0625 3.84375 -2.40625 C 4.257812 -2.757812 4.46875 -3.632812 4.46875 -5.03125 L 4.46875 -25.359375 C 4.46875 -26.796875 4.269531 -27.6875 3.875 -28.03125 C 3.476562 -28.382812 2.300781 -28.5625 0.34375 -28.5625 L 0.34375 -31.578125 C 1.601562 -31.578125 3.046875 -31.53125 4.671875 -31.4375 C 6.304688 -31.34375 7.191406 -31.296875 7.328125 -31.296875 C 8.117188 -31.296875 9.328125 -31.34375 10.953125 -31.4375 C 12.585938 -31.53125 13.753906 -31.578125 14.453125 -31.578125 L 14.453125 -28.5625 C 12.546875 -28.5625 11.394531 -28.382812 11 -28.03125 C 10.601562 -27.6875 10.40625 -26.796875 10.40625 -25.359375 L 10.40625 -5.03125 C 10.40625 -3.632812 10.59375 -2.757812 10.96875 -2.40625 C 11.34375 -2.0625 12.503906 -1.890625 14.453125 -1.890625 Z M 14.453125 1.1875 "/></g></g></g><g fill="#ffffff" fill-opacity="1"><g transform="translate(92.17885, 224.784147)"><g><path d="M 32.765625 -10.203125 C 32.109375 -10.015625 31.648438 -9.742188 31.390625 -9.390625 C 31.140625 -9.046875 31.015625 -8.570312 31.015625 -7.96875 C 31.015625 -7.78125 31.035156 -7.425781 31.078125 -6.90625 C 31.128906 -6.394531 31.15625 -5.976562 31.15625 -5.65625 L 31.359375 -0.90625 L 28.640625 0.0625 C 26.921875 0.582031 25.222656 1.003906 23.546875 1.328125 C 21.867188 1.648438 20.285156 1.8125 18.796875 1.8125 C 13.296875 1.8125 8.867188 0.414062 5.515625 -2.375 C 1.929688 -5.40625 0.140625 -9.664062 0.140625 -15.15625 C 0.140625 -20.375 1.882812 -24.519531 5.375 -27.59375 C 8.875 -30.664062 13.4375 -32.203125 19.0625 -32.203125 C 20.882812 -32.203125 22.738281 -32.023438 24.625 -31.671875 C 26.507812 -31.328125 28.800781 -30.78125 31.5 -30.03125 C 31.363281 -29.101562 31.203125 -28.078125 31.015625 -26.953125 C 30.828125 -25.835938 30.59375 -24.164062 30.3125 -21.9375 L 27.515625 -21.9375 C 27.515625 -22.351562 27.515625 -22.757812 27.515625 -23.15625 C 27.515625 -23.550781 27.515625 -23.910156 27.515625 -24.234375 C 27.515625 -25.023438 27.421875 -25.617188 27.234375 -26.015625 C 27.054688 -26.410156 26.554688 -26.796875 25.734375 -27.171875 C 24.921875 -27.546875 23.96875 -27.867188 22.875 -28.140625 C 21.78125 -28.421875 20.535156 -28.5625 19.140625 -28.5625 C 15.222656 -28.5625 12.144531 -27.429688 9.90625 -25.171875 C 7.675781 -22.921875 6.5625 -19.929688 6.5625 -16.203125 C 6.5625 -11.921875 7.738281 -8.453125 10.09375 -5.796875 C 12.445312 -3.140625 15.71875 -1.8125 19.90625 -1.8125 C 21.445312 -1.8125 22.691406 -1.914062 23.640625 -2.125 C 24.597656 -2.332031 25.144531 -2.65625 25.28125 -3.09375 C 25.425781 -3.539062 25.5 -4.441406 25.5 -5.796875 C 25.5 -6.679688 25.484375 -7.472656 25.453125 -8.171875 C 25.429688 -8.867188 25.394531 -9.34375 25.34375 -9.59375 C 25.300781 -9.851562 24.976562 -9.984375 24.375 -9.984375 C 24.050781 -9.984375 23.390625 -9.957031 22.390625 -9.90625 C 21.390625 -9.863281 20.722656 -9.84375 20.390625 -9.84375 L 20.390625 -12.71875 L 32.6875 -12.71875 Z M 32.765625 -10.203125 "/></g></g></g><g fill="#ffffff" fill-opacity="1"><g transform="translate(125.919016, 224.784147)"><g><path d="M 34.296875 1.1875 C 33.222656 1.1875 31.960938 1.140625 30.515625 1.046875 C 29.078125 0.953125 28.101562 0.90625 27.59375 0.90625 C 26.9375 0.90625 25.828125 0.953125 24.265625 1.046875 C 22.710938 1.140625 21.609375 1.1875 20.953125 1.1875 L 20.953125 -1.8125 C 21.929688 -1.863281 22.648438 -1.9375 23.109375 -2.03125 C 23.578125 -2.125 24.046875 -2.304688 24.515625 -2.578125 C 24.660156 -2.628906 24.6875 -2.84375 24.59375 -3.21875 L 22.140625 -9.078125 L 10.546875 -9.078125 C 10.078125 -7.816406 9.585938 -6.582031 9.078125 -5.375 C 8.429688 -3.75 8.109375 -2.816406 8.109375 -2.578125 C 8.109375 -2.117188 8.5625 -1.890625 9.46875 -1.890625 C 10.375 -1.890625 11.109375 -1.863281 11.671875 -1.8125 L 11.671875 1.1875 C 9.617188 1 7.847656 0.90625 6.359375 0.90625 L 5.796875 0.90625 C 4.960938 0.90625 4.148438 0.914062 3.359375 0.9375 C 2.566406 0.96875 1.425781 1.050781 -0.0625 1.1875 L -0.0625 -1.890625 C 1.375 -2.117188 2.28125 -2.300781 2.65625 -2.4375 C 3.03125 -2.582031 3.398438 -3.050781 3.765625 -3.84375 L 6 -8.375 L 11.9375 -21.796875 C 12.644531 -23.234375 13.347656 -24.753906 14.046875 -26.359375 C 14.742188 -27.972656 15.460938 -29.78125 16.203125 -31.78125 L 18.578125 -31.78125 L 29.546875 -6.140625 C 30.148438 -4.742188 30.554688 -3.882812 30.765625 -3.5625 C 30.972656 -3.238281 31.289062 -2.890625 31.71875 -2.515625 C 31.988281 -2.234375 32.847656 -2 34.296875 -1.8125 Z M 20.671875 -12.71875 L 16.484375 -22.90625 L 12.015625 -12.71875 Z M 20.671875 -12.71875 "/></g></g></g><g fill="#ffffff" fill-opacity="1"><g transform="translate(160.287881, 224.784147)"><g><path d="M 36.609375 -28.703125 L 35.0625 -28.4375 C 33.988281 -28.4375 33.265625 -28.316406 32.890625 -28.078125 C 32.523438 -27.847656 32.34375 -27.265625 32.34375 -26.328125 L 32.265625 -0.84375 L 32.546875 2.03125 L 27.65625 0.90625 L 7.6875 -23.1875 L 7.6875 -4.125 C 7.6875 -3.1875 7.847656 -2.601562 8.171875 -2.375 C 8.492188 -2.144531 9.21875 -2.03125 10.34375 -2.03125 L 11.875 -1.890625 L 11.875 1.1875 C 9.726562 1 7.9375 0.90625 6.5 0.90625 L 5.796875 0.90625 C 4.910156 0.90625 4.0625 0.914062 3.25 0.9375 C 2.4375 0.96875 1.257812 1.050781 -0.28125 1.1875 L -0.28125 -1.8125 L 1.125 -2.03125 C 2.1875 -2.03125 2.914062 -2.15625 3.3125 -2.40625 C 3.707031 -2.664062 3.90625 -3.238281 3.90625 -4.125 L 3.90625 -26.328125 C 3.90625 -27.265625 3.726562 -27.859375 3.375 -28.109375 C 3.03125 -28.367188 2.414062 -28.5 1.53125 -28.5 L 0.140625 -28.5625 L 0.140625 -31.578125 C 1.117188 -31.578125 1.96875 -31.539062 2.6875 -31.46875 C 3.40625 -31.394531 4.09375 -31.335938 4.75 -31.296875 C 5.632812 -31.296875 7.03125 -31.410156 8.9375 -31.640625 L 28.5625 -6.84375 L 28.5625 -26.328125 C 28.5625 -27.265625 28.375 -27.847656 28 -28.078125 C 27.632812 -28.316406 26.894531 -28.4375 25.78125 -28.4375 L 24.453125 -28.703125 L 24.453125 -31.578125 C 25.609375 -31.484375 26.664062 -31.410156 27.625 -31.359375 C 28.582031 -31.316406 29.550781 -31.296875 30.53125 -31.296875 C 31.269531 -31.296875 32.128906 -31.316406 33.109375 -31.359375 C 34.085938 -31.410156 35.253906 -31.484375 36.609375 -31.578125 Z M 36.609375 -28.703125 "/></g></g></g><g fill="#ffffff" fill-opacity="1"><g transform="translate(197.031836, 224.784147)"><g><path d="M 34.09375 -17.109375 C 34.09375 -11.660156 32.203125 -7.257812 28.421875 -3.90625 C 24.648438 -0.550781 19.925781 1.125 14.25 1.125 L 8.453125 0.90625 C 7.847656 0.90625 6.738281 0.953125 5.125 1.046875 C 3.519531 1.140625 2.414062 1.1875 1.8125 1.1875 L 1.8125 -1.890625 C 2.75 -2.078125 3.367188 -2.273438 3.671875 -2.484375 C 3.972656 -2.691406 4.125 -3.117188 4.125 -3.765625 L 4.125 -24.875 C 4.125 -26.5 3.910156 -27.507812 3.484375 -27.90625 C 3.066406 -28.300781 2 -28.5 0.28125 -28.5 L 0.28125 -31.5 L 9.5625 -31.296875 C 10.59375 -31.296875 12.0625 -31.328125 13.96875 -31.390625 C 15.875 -31.460938 17.296875 -31.5 18.234375 -31.5 C 22.742188 -31.5 26.515625 -30.21875 29.546875 -27.65625 C 32.578125 -25.09375 34.09375 -21.578125 34.09375 -17.109375 Z M 27.65625 -15.78125 C 27.65625 -19.925781 26.46875 -23 24.09375 -25 C 21.90625 -26.820312 18.90625 -27.734375 15.09375 -27.734375 C 14.625 -27.734375 13.84375 -27.695312 12.75 -27.625 C 11.65625 -27.550781 10.78125 -27.515625 10.125 -27.515625 C 10.082031 -27.191406 10.046875 -26.878906 10.015625 -26.578125 C 9.992188 -26.273438 9.984375 -25.890625 9.984375 -25.421875 L 9.984375 -5.796875 C 9.984375 -5.328125 9.984375 -4.882812 9.984375 -4.46875 C 9.984375 -4.050781 10.03125 -3.539062 10.125 -2.9375 C 11.101562 -2.75 11.78125 -2.640625 12.15625 -2.609375 C 12.53125 -2.585938 12.945312 -2.578125 13.40625 -2.578125 C 18.488281 -2.578125 22.191406 -3.835938 24.515625 -6.359375 C 26.609375 -8.492188 27.65625 -11.632812 27.65625 -15.78125 Z M 27.65625 -15.78125 "/></g></g></g><g fill="#ffffff" fill-opacity="1"><g transform="translate(231.191139, 224.784147)"><g><path d="M 36.390625 1.1875 C 35.273438 1.1875 33.945312 1.140625 32.40625 1.046875 C 30.875 0.953125 29.804688 0.90625 29.203125 0.90625 C 28.546875 0.90625 27.367188 0.953125 25.671875 1.046875 C 23.972656 1.140625 22.820312 1.1875 22.21875 1.1875 L 22.21875 -1.890625 C 24.125 -1.890625 25.285156 -2.0625 25.703125 -2.40625 C 26.117188 -2.757812 26.328125 -3.632812 26.328125 -5.03125 L 26.265625 -14.390625 L 10.484375 -14.390625 L 10.40625 -5.03125 C 10.40625 -3.632812 10.59375 -2.757812 10.96875 -2.40625 C 11.34375 -2.0625 12.503906 -1.890625 14.453125 -1.890625 L 14.453125 1.1875 C 13.429688 1.1875 12.328125 1.148438 11.140625 1.078125 C 9.953125 1.015625 8.679688 0.957031 7.328125 0.90625 C 6.679688 0.90625 5.492188 0.953125 3.765625 1.046875 C 2.046875 1.140625 0.90625 1.1875 0.34375 1.1875 L 0.34375 -1.890625 C 2.257812 -1.890625 3.425781 -2.0625 3.84375 -2.40625 C 4.257812 -2.757812 4.46875 -3.632812 4.46875 -5.03125 L 4.46875 -25.359375 C 4.46875 -26.796875 4.269531 -27.6875 3.875 -28.03125 C 3.476562 -28.382812 2.300781 -28.5625 0.34375 -28.5625 L 0.34375 -31.578125 C 1.601562 -31.578125 3.046875 -31.53125 4.671875 -31.4375 C 6.304688 -31.34375 7.191406 -31.296875 7.328125 -31.296875 C 8.117188 -31.296875 9.328125 -31.34375 10.953125 -31.4375 C 12.585938 -31.53125 13.753906 -31.578125 14.453125 -31.578125 L 14.453125 -28.5625 C 12.503906 -28.5625 11.332031 -28.382812 10.9375 -28.03125 C 10.539062 -27.6875 10.34375 -26.796875 10.34375 -25.359375 L 10.484375 -18.234375 L 26.328125 -18.015625 L 26.328125 -25.359375 C 26.328125 -26.796875 26.140625 -27.6875 25.765625 -28.03125 C 25.398438 -28.382812 24.21875 -28.5625 22.21875 -28.5625 L 22.21875 -31.578125 C 23.519531 -31.578125 24.972656 -31.53125 26.578125 -31.4375 C 28.179688 -31.34375 29.054688 -31.296875 29.203125 -31.296875 C 29.992188 -31.296875 31.210938 -31.34375 32.859375 -31.4375 C 34.515625 -31.53125 35.691406 -31.578125 36.390625 -31.578125 L 36.390625 -28.5625 C 34.484375 -28.5625 33.316406 -28.375 32.890625 -28 C 32.472656 -27.632812 32.265625 -26.753906 32.265625 -25.359375 L 32.265625 -5.03125 C 32.265625 -3.632812 32.460938 -2.757812 32.859375 -2.40625 C 33.253906 -2.0625 34.429688 -1.890625 36.390625 -1.890625 Z M 36.390625 1.1875 "/></g></g></g><g fill="#ffffff" fill-opacity="1"><g transform="translate(267.935095, 224.784147)"><g><path d="M 14.453125 1.1875 C 13.429688 1.1875 12.328125 1.148438 11.140625 1.078125 C 9.953125 1.015625 8.679688 0.957031 7.328125 0.90625 C 6.679688 0.90625 5.492188 0.953125 3.765625 1.046875 C 2.046875 1.140625 0.90625 1.1875 0.34375 1.1875 L 0.34375 -1.890625 C 2.257812 -1.890625 3.425781 -2.0625 3.84375 -2.40625 C 4.257812 -2.757812 4.46875 -3.632812 4.46875 -5.03125 L 4.46875 -25.359375 C 4.46875 -26.796875 4.269531 -27.6875 3.875 -28.03125 C 3.476562 -28.382812 2.300781 -28.5625 0.34375 -28.5625 L 0.34375 -31.578125 C 1.601562 -31.578125 3.046875 -31.53125 4.671875 -31.4375 C 6.304688 -31.34375 7.191406 -31.296875 7.328125 -31.296875 C 8.117188 -31.296875 9.328125 -31.34375 10.953125 -31.4375 C 12.585938 -31.53125 13.753906 -31.578125 14.453125 -31.578125 L 14.453125 -28.5625 C 12.546875 -28.5625 11.394531 -28.382812 11 -28.03125 C 10.601562 -27.6875 10.40625 -26.796875 10.40625 -25.359375 L 10.40625 -5.03125 C 10.40625 -3.632812 10.59375 -2.757812 10.96875 -2.40625 C 11.34375 -2.0625 12.503906 -1.890625 14.453125 -1.890625 Z M 14.453125 1.1875 "/></g></g></g></svg>